<svg width="12" height="24" viewBox="0 0 12 24" fill="none" xmlns="http://www.w3.org/2000/svg">
<path d="M11.4978 13.3236L2.66869 23.4689C2.52368 23.6372 2.35115 23.7707 2.16106 23.8619C1.97097 23.9531 1.76708 24 1.56115 24C1.35522 24 1.15133 23.9531 0.961244 23.8619C0.771154 23.7707 0.598626 23.6372 0.453612 23.4689C0.163076 23.1324 0 22.6773 0 22.2029C0 21.7286 0.163076 21.2735 0.453612 20.937L8.17519 11.9589L0.453612 3.07052C0.163076 2.73409 0 2.27898 0 1.8046C0 1.33022 0.163076 0.87512 0.453612 0.538687C0.598083 0.36902 0.770367 0.234043 0.960483 0.141575C1.1506 0.0491047 1.35476 0.000986099 1.56115 0C1.76754 0.000986099 1.97171 0.0491047 2.16182 0.141575C2.35194 0.234043 2.52422 0.36902 2.66869 0.538687L11.4978 10.684C11.6562 10.8521 11.7825 11.0562 11.8689 11.2834C11.9554 11.5105 12 11.7558 12 12.0038C12 12.2518 11.9554 12.497 11.8689 12.7242C11.7825 12.9513 11.6562 13.1554 11.4978 13.3236Z" fill="#1D71B8"/>
</svg>
