<svg width="12" height="24" viewBox="0 0 12 24" fill="none" xmlns="http://www.w3.org/2000/svg">
<path d="M0.502188 13.3236L9.33131 23.4689C9.47632 23.6372 9.64885 23.7707 9.83894 23.8619C10.029 23.9531 10.2329 24 10.4388 24C10.6448 24 10.8487 23.9531 11.0388 23.8619C11.2288 23.7707 11.4014 23.6372 11.5464 23.4689C11.8369 23.1324 12 22.6773 12 22.2029C12 21.7286 11.8369 21.2735 11.5464 20.937L3.82481 11.9589L11.5464 3.07052C11.8369 2.73409 12 2.27898 12 1.8046C12 1.33022 11.8369 0.87512 11.5464 0.538687C11.4019 0.36902 11.2296 0.234043 11.0395 0.141575C10.8494 0.0491047 10.6452 0.000986099 10.4388 0C10.2325 0.000986099 10.0283 0.0491047 9.83818 0.141575C9.64806 0.234043 9.47578 0.36902 9.33131 0.538687L0.502188 10.684C0.343849 10.8521 0.217483 11.0562 0.131052 11.2834C0.0446215 11.5105 0 11.7558 0 12.0038C0 12.2518 0.0446215 12.497 0.131052 12.7242C0.217483 12.9513 0.343849 13.1554 0.502188 13.3236Z" fill="#1D71B8"/>
</svg>
