<svg width="20" height="26" viewBox="0 0 20 26" fill="none" xmlns="http://www.w3.org/2000/svg">
<path d="M10 0.5C7.34784 0.5 4.8043 1.55357 2.92893 3.42892C1.05357 5.30428 0 7.84781 0 10.5C0 17.2499 8.8125 24.8749 9.1875 25.1999C9.41392 25.3936 9.70206 25.5 10 25.5C10.2979 25.5 10.5861 25.3936 10.8125 25.1999C11.25 24.8749 20 17.2499 20 10.5C20 7.84781 18.9464 5.30428 17.0711 3.42892C15.1957 1.55357 12.6522 0.5 10 0.5ZM10 22.5624C7.3375 20.0624 2.5 14.675 2.5 10.5C2.5 8.51085 3.29018 6.6032 4.6967 5.19668C6.10322 3.79017 8.01088 2.99999 10 2.99999C11.9891 2.99999 13.8968 3.79017 15.3033 5.19668C16.7098 6.6032 17.5 8.51085 17.5 10.5C17.5 14.675 12.6625 20.0749 10 22.5624ZM10 5.49998C9.01109 5.49998 8.0444 5.79323 7.22215 6.34263C6.3999 6.89204 5.75904 7.67293 5.3806 8.58656C5.00216 9.50018 4.90315 10.5055 5.09607 11.4754C5.289 12.4453 5.7652 13.3362 6.46447 14.0355C7.16373 14.7348 8.05464 15.211 9.02455 15.4039C9.99445 15.5968 10.9998 15.4978 11.9134 15.1194C12.827 14.7409 13.6079 14.1001 14.1573 13.2778C14.7068 12.4556 15 11.4889 15 10.5C15 9.17389 14.4732 7.90212 13.5355 6.96445C12.5979 6.02677 11.3261 5.49998 10 5.49998ZM10 13C9.50555 13 9.0222 12.8533 8.61107 12.5786C8.19995 12.3039 7.87952 11.9135 7.6903 11.4567C7.50108 10.9999 7.45157 10.4972 7.54804 10.0122C7.6445 9.52729 7.8826 9.08184 8.23223 8.73221C8.58186 8.38258 9.02732 8.14447 9.51227 8.04801C9.99723 7.95155 10.4999 8.00106 10.9567 8.19028C11.4135 8.37949 11.804 8.69993 12.0787 9.11105C12.3534 9.52217 12.5 10.0055 12.5 10.5C12.5 11.163 12.2366 11.7989 11.7678 12.2677C11.2989 12.7366 10.663 13 10 13Z" fill="#323232"/>
</svg>
