<svg width="24" height="20" viewBox="0 0 24 20" fill="none" xmlns="http://www.w3.org/2000/svg">
<path d="M20.4 0H3.6C2.64522 0 1.72955 0.379285 1.05442 1.05442C0.379285 1.72955 0 2.64522 0 3.6V15.6C0 16.5548 0.379285 17.4705 1.05442 18.1456C1.72955 18.8207 2.64522 19.2 3.6 19.2H20.4C21.3548 19.2 22.2705 18.8207 22.9456 18.1456C23.6207 17.4705 24 16.5548 24 15.6V3.6C24 2.64522 23.6207 1.72955 22.9456 1.05442C22.2705 0.379285 21.3548 0 20.4 0ZM19.908 2.4L12.852 9.456C12.7404 9.56847 12.6077 9.65775 12.4615 9.71867C12.3153 9.77959 12.1584 9.81096 12 9.81096C11.8416 9.81096 11.6847 9.77959 11.5385 9.71867C11.3923 9.65775 11.2596 9.56847 11.148 9.456L4.092 2.4H19.908ZM21.6 15.6C21.6 15.9183 21.4736 16.2235 21.2485 16.4485C21.0235 16.6736 20.7183 16.8 20.4 16.8H3.6C3.28174 16.8 2.97652 16.6736 2.75147 16.4485C2.52643 16.2235 2.4 15.9183 2.4 15.6V4.092L9.456 11.148C10.131 11.8222 11.046 12.2008 12 12.2008C12.954 12.2008 13.869 11.8222 14.544 11.148L21.6 4.092V15.6Z" fill="#323232"/>
</svg>
