<svg width="24" height="24" viewBox="0 0 24 24" fill="none" xmlns="http://www.w3.org/2000/svg">
<path fill-rule="evenodd" clip-rule="evenodd" d="M17.1905 15.4782L23.6464 21.934C23.8733 22.1611 24.0007 22.469 24.0006 22.79C24.0005 23.111 23.8729 23.4189 23.6458 23.6458C23.4187 23.8727 23.1108 24.0001 22.7898 24C22.4688 23.9999 22.1609 23.8723 21.934 23.6452L15.4782 17.1893C13.5483 18.6841 11.1214 19.3875 8.69126 19.1565C6.26113 18.9255 4.01028 17.7773 2.39662 15.9457C0.782955 14.114 -0.0723165 11.7364 0.00479549 9.29655C0.0819075 6.85668 1.08561 4.53783 2.81172 2.81172C4.53783 1.08561 6.85668 0.0819075 9.29655 0.00479549C11.7364 -0.0723165 14.114 0.782955 15.9457 2.39662C17.7773 4.01028 18.9255 6.26113 19.1565 8.69126C19.3875 11.1214 18.6841 13.5483 17.1893 15.4782H17.1905ZM9.60069 16.7993C11.5102 16.7993 13.3415 16.0408 14.6917 14.6905C16.042 13.3403 16.8005 11.509 16.8005 9.59949C16.8005 7.68997 16.042 5.85866 14.6917 4.50843C13.3415 3.15819 11.5102 2.39964 9.60069 2.39964C7.69117 2.39964 5.85986 3.15819 4.50963 4.50843C3.15939 5.85866 2.40084 7.68997 2.40084 9.59949C2.40084 11.509 3.15939 13.3403 4.50963 14.6905C5.85986 16.0408 7.69117 16.7993 9.60069 16.7993V16.7993Z" fill="white"/>
</svg>
