<svg width="570" height="594" viewBox="0 0 570 594" fill="none" xmlns="http://www.w3.org/2000/svg">
<path opacity="0.4" d="M218.067 469.169L289.165 428.059C294.296 425.093 293.644 419.92 287.731 416.491L241.648 389.855L151.958 441.703L198.041 468.338C203.966 471.767 212.925 472.135 218.067 469.169Z" fill="#D6D8E5"/>
<path d="M212.853 466.12L283.951 424.998C289.07 422.032 288.43 416.859 282.505 413.431L236.47 386.783L146.78 438.631L192.851 465.278C198.776 468.707 207.734 469.075 212.853 466.12Z" fill="#B1B4C4"/>
<path d="M146.768 438.643V435.926L150.916 438.322L146.768 438.643Z" fill="#B1B4C4"/>
<path d="M287.447 420.096V417.332L283.193 419.1L287.447 420.096Z" fill="#B1B4C4"/>
<path d="M212.853 463.392L283.951 422.281C289.07 419.315 288.43 414.143 282.505 410.714L236.434 384.078L146.745 435.926L192.816 462.561C198.776 465.99 207.734 466.358 212.853 463.392Z" fill="#D6D8E5"/>
<path d="M236.233 384.197L247.324 347.322L156.651 399.395L146.768 435.926L236.233 384.197Z" fill="#9EA1AF"/>
<path d="M149.339 437.444L146.721 435.925L150.619 432.805L149.339 437.444Z" fill="#9EA1AF"/>
<path d="M239.088 385.585L250.191 348.711L159.507 400.784L149.399 437.445L239.088 385.585Z" fill="#B1B4C4"/>
<path d="M8.91092 499.589L359.895 296.708C364.813 293.861 368.806 286.22 368.806 279.647V7.82205C368.806 1.24918 364.813 -1.77624 359.895 1.07121L8.91092 203.952C3.99335 206.8 6.10352e-05 214.429 6.10352e-05 221.002V492.85C0.035614 499.423 3.99335 502.437 8.91092 499.589Z" fill="#C4C7D6"/>
<path d="M7.10956 502.4L3.22286 500.146L4.90549 488.602L7.10956 502.4Z" fill="#C4C7D6"/>
<path d="M369.434 2.74389L365.606 0.537109L360.108 3.68117C360.108 3.68117 365.962 4.571 366.104 4.53541C366.246 4.49982 369.434 2.74389 369.434 2.74389Z" fill="#B1B4C4"/>
<path d="M12.1336 501.453L363.106 298.571C368.036 295.736 372.017 288.095 372.017 281.522V9.68533C372.017 3.11246 368.036 0.0870385 363.106 2.93449L12.1336 205.816C7.20422 208.663 3.22281 216.292 3.22281 222.865V494.749C3.22281 501.275 7.14496 504.3 12.1336 501.453Z" fill="#E4E7F2"/>
<path d="M12.7498 501.867L363.722 298.986C368.652 296.139 372.645 288.51 372.645 281.937V10.0408C372.645 3.46793 368.652 0.442507 363.722 3.28996L12.7498 206.171C7.83221 209.007 3.83887 216.647 3.83887 223.22V495.057C3.83887 501.63 7.83221 504.656 12.7498 501.867Z" fill="#D6D8E5"/>
<path d="M8.66165 485.258L368.178 277.453L368 11.1209C368 8.40399 366.08 7.28873 363.722 8.65314L12.7498 211.534C11.5101 212.348 10.4783 213.442 9.73746 214.728C8.99658 216.014 8.56726 217.456 8.48392 218.938L8.66165 485.258Z" fill="white"/>
<path opacity="0.4" d="M118.412 586.936C103.17 586.936 90.8145 579.797 90.8145 570.991C90.8145 562.184 103.17 555.045 118.412 555.045C133.654 555.045 146.01 562.184 146.01 570.991C146.01 579.797 133.654 586.936 118.412 586.936Z" fill="#D6D8E5"/>
<path opacity="0.4" d="M446.74 593.224C431.498 593.224 419.143 586.084 419.143 577.278C419.143 568.471 431.498 561.332 446.74 561.332C461.982 561.332 474.338 568.471 474.338 577.278C474.338 586.084 461.982 593.224 446.74 593.224Z" fill="#D6D8E5"/>
<path opacity="0.4" d="M542.402 448.513C527.16 448.513 514.804 441.373 514.804 432.567C514.804 423.76 527.16 416.621 542.402 416.621C557.644 416.621 570 423.76 570 432.567C570 441.373 557.644 448.513 542.402 448.513Z" fill="#D6D8E5"/>
<path d="M466.079 470.594C466.079 470.594 465.297 482.316 463.709 483.989C462.121 485.661 456.99 486.836 456.99 486.836L452.985 493.421C452.985 493.421 456.694 472.468 457.429 471.97C458.164 471.472 466.079 470.594 466.079 470.594Z" fill="#FFCEA9"/>
<path d="M458.389 457.579C459.362 457.127 460.467 457.048 461.494 457.359C462.521 457.67 463.398 458.347 463.958 459.263C465.427 461.707 466.956 470.072 467.098 471.507C467.098 471.507 465.036 474.367 461.932 473.88L458.389 457.579Z" fill="#EDEDED"/>
<path d="M446.539 574.526C444.363 575.122 442.041 574.841 440.069 573.743C438.505 573.743 430.044 570.184 428.895 573.209C427.888 575.879 431.549 578.346 433.504 578.821C437.782 579.853 440.946 581.989 442.664 582.38C443.944 582.641 445.603 582.819 446.622 581.811C447.842 580.589 447.736 576.116 446.539 574.526Z" fill="#38226D"/>
<path d="M442.665 581.609C440.946 581.253 437.782 579.117 433.505 578.049C431.87 577.658 429.037 575.854 428.765 573.719C428.386 576.175 431.692 578.346 433.505 578.797C437.782 579.829 440.946 581.964 442.665 582.356C443.944 582.617 445.603 582.795 446.622 581.787C446.887 581.496 447.078 581.146 447.179 580.766C446.544 581.249 445.805 581.576 445.022 581.723C444.238 581.869 443.431 581.83 442.665 581.609Z" fill="#9C73FF"/>
<path d="M459.716 570.409C457.54 571.011 455.215 570.73 453.246 569.626C451.694 569.626 443.221 566.067 442.072 569.092C441.065 571.761 444.726 574.229 446.693 574.704C450.959 575.736 454.123 577.872 455.841 578.263C457.121 578.536 458.78 578.702 459.799 577.706C460.984 576.472 460.913 571.999 459.716 570.409Z" fill="#38226D"/>
<path d="M455.841 577.494C454.123 577.138 450.959 575.002 446.693 573.934C445.046 573.531 442.226 571.727 441.954 569.592C441.574 572.048 444.88 574.231 446.693 574.67C450.959 575.702 454.123 577.838 455.841 578.229C457.121 578.502 458.78 578.668 459.799 577.671C460.066 577.378 460.257 577.024 460.356 576.639C459.723 577.127 458.985 577.458 458.201 577.606C457.416 577.755 456.608 577.716 455.841 577.494Z" fill="#9C73FF"/>
<path d="M460.652 546.573C460.287 543.428 459.636 540.322 458.708 537.295C458.708 537.295 459.289 529.287 459.573 521.694C459.905 513.068 462.891 505.487 460.533 498.605L434.322 504.443C434.322 504.443 435.59 538.85 435.945 543.038C436.136 546.275 436.532 549.496 437.13 552.683C438.351 559.363 439.654 574.241 439.654 574.241C442.463 575.866 446.574 574.526 446.574 574.526C446.574 574.526 446.574 555.839 446.42 551.034C446.195 545.102 446.018 545.612 446.018 545.612L446.894 530.995L447.463 523.722C447.463 523.722 448.21 529.061 448.648 533.831C449.063 537.983 450.07 541.744 451.184 549.48C452.156 556.195 453.163 569.875 453.163 569.875C455.971 571.512 459.751 570.385 459.751 570.385C459.751 570.385 461.422 552.399 460.652 546.573Z" fill="#1D71B8"/>
<path d="M456.979 457.722C454.964 457.828 453.424 458.35 453.199 457.722C452.978 456.68 452.824 455.626 452.737 454.566C452.974 453.972 453.175 453.379 453.175 453.379C455.711 451.813 456.517 449.061 456.848 445.857C457.417 440.388 454.478 435.606 449.004 435.037C443.873 434.491 440.093 438.11 439.074 443.069C438.541 445.525 437.451 450.188 438.92 454.186C439.738 456.44 440.792 458.232 441.835 458.576C442.855 458.547 443.872 458.456 444.88 458.303L445.331 460.794C445.52 461.767 445.449 462.289 443.506 463.476C441.562 464.662 446.444 467.13 449.632 466.893C452.819 466.655 456.386 464.733 457.37 462.669C458.472 460.344 458.365 457.662 456.979 457.722Z" fill="#FFCEA9"/>
<path d="M454.051 458.029C454.62 459.429 453.198 461.137 449.394 462.335C445.591 463.534 445.247 461.991 445.247 461.991C442.719 463.125 440.254 464.396 437.865 465.8C435.59 467.39 434.582 472.005 434.31 479.812C433.954 488.829 433.919 502.212 434.215 504.525C434.215 504.525 438.481 508.773 443.932 508.322C449.383 507.871 458.519 503.054 460.746 499.317C460.746 491.403 459.763 490.122 461.043 485.554C463.969 475.125 465.51 470.854 464.088 463.925C462.903 458.207 461.28 457.495 459.016 457.554C457.354 457.625 455.697 457.783 454.051 458.029Z" fill="#F4F4F4"/>
<path d="M438.979 511.465L441.752 480.048L435.898 476.939L433.623 478.861L434.322 507.075V507.846V508.843C434.322 508.843 434.192 511.216 438.659 514.051C438.659 514.051 438.73 513.304 438.801 512.616L438.908 511.429L438.979 511.465Z" fill="#FFCEA9"/>
<path d="M439.654 463.902C436.633 463.902 434.713 465.445 433.967 470.107C433.22 474.77 432.782 478.579 432.782 478.579C434.167 480.125 436.093 481.081 438.161 481.248C441.823 481.663 442.901 479.801 442.901 479.801C442.901 479.801 443.292 474.96 443.494 471.674C443.695 468.387 443.411 463.902 439.654 463.902Z" fill="#EDEDED"/>
<path d="M439.252 442.333C439.252 442.333 434.512 435.155 444.762 433.684C452.144 432.628 456.884 437.373 457.429 442.523C457.95 447.446 454.929 452.56 452.689 454.589C450.542 455.132 448.27 454.857 446.314 453.818C446.196 452.476 446.148 451.13 446.172 449.784C446.172 449.784 449.822 442.202 439.252 442.333Z" fill="#3A2C6D"/>
<path opacity="0.4" d="M42.6935 436.08L326.301 272.138C332.143 268.769 336.883 259.704 336.883 251.897V42.8231C336.883 35.0163 332.143 31.4333 326.301 34.8146L42.6935 198.745C36.8516 202.126 32.1118 211.191 32.1118 218.986V428.072C32.1236 435.867 36.8635 439.462 42.6935 436.08Z" fill="#D6D8E5"/>
<path d="M58.5955 406.715L342.18 242.785C348.033 239.403 352.761 230.339 352.761 222.532V13.4579C352.761 5.65108 348.021 2.06803 342.18 5.44939L58.5955 169.38C52.7537 172.761 48.0138 181.825 48.0138 189.632V398.707C48.0138 406.513 52.7537 410.096 58.5955 406.715Z" fill="white"/>
<path d="M48.0138 206.088L352.761 29.9138V13.4579C352.761 5.65108 348.021 2.06803 342.18 5.44939L58.5955 169.38C52.7537 172.761 48.0138 181.825 48.0138 189.632V206.088Z" fill="#1D71B8"/>
<path d="M48.0138 206.088L352.761 29.9138V13.4579C352.761 5.65108 348.021 2.06803 342.18 5.44939L58.5955 169.38C52.7537 172.761 48.0138 181.825 48.0138 189.632V206.088Z" fill="white" fill-opacity="0.05"/>
<path d="M331.627 31.1054C330.181 30.27 330.182 27.5594 331.629 25.0512C333.075 22.543 335.419 21.187 336.864 22.0224C338.309 22.8579 338.308 25.5685 336.862 28.0766C335.416 30.5848 333.072 31.9409 331.627 31.1054Z" fill="white"/>
<path d="M301.997 47.8073C300.545 46.9718 300.54 44.2519 301.987 41.7322C303.433 39.2125 305.782 37.8472 307.234 38.6826C308.686 39.518 308.69 42.2379 307.244 44.7576C305.798 47.2774 303.448 48.6427 301.997 47.8073Z" fill="white"/>
<path d="M317.343 39.3593C315.898 38.5239 315.899 35.8133 317.345 33.3051C318.791 30.7969 321.135 29.4409 322.581 30.2764C324.026 31.1118 324.025 33.8224 322.579 36.3306C321.132 38.8388 318.788 40.1948 317.343 39.3593Z" fill="white"/>
<path d="M309.38 229.936L324.192 221.37V160.209L309.38 168.763V229.936Z" fill="#FCA70D"/>
<path d="M254.35 261.743L269.174 253.177V149.197L254.35 157.763V261.743Z" fill="#FCA70D"/>
<path d="M281.865 245.846L296.677 237.28V155.309L281.865 163.875V245.846Z" fill="#1D71B8"/>
<path d="M226.848 277.643L241.66 269.088V124.734L226.848 133.289V277.643Z" fill="#1D71B8"/>
<path d="M74.462 238.501L191.927 170.601V153.48L74.462 221.38V238.501Z" fill="#E9EAF2"/>
<path d="M74.4625 260.521L191.927 192.621V184.055L74.4625 251.955V260.521Z" fill="#E9EAF2"/>
<path d="M74.4625 276.835L191.927 208.935V200.369L74.4625 268.269V276.835Z" fill="#E9EAF2"/>
<path d="M90.3409 283.965L191.927 225.248V216.682L90.3409 275.41V283.965Z" fill="#E9EAF2"/>
<path d="M105.153 291.725L191.927 241.562V232.996L105.153 283.159V291.725Z" fill="#E9EAF2"/>
<path d="M142.183 305.786L178.17 284.988V276.434L142.183 297.22V305.786Z" fill="#E9EAF2"/>
<path d="M181.345 283.159L191.927 277.037V268.471L181.345 274.593V283.159Z" fill="#FCA70D"/>
<path d="M142.183 326.583L178.17 305.785V297.219L142.183 318.017V326.583Z" fill="#E9EAF2"/>
<path d="M181.345 303.958L191.927 297.836V289.27L181.345 295.392V303.958Z" fill="#1D71B8"/>
<path d="M77.6381 343.097L113.613 322.298V313.744L77.6381 334.531V343.097Z" fill="#E9EAF2"/>
<path d="M116.789 320.473L127.371 314.351V305.785L116.789 311.907V320.473Z" fill="#1D71B8"/>
<path d="M77.6381 363.896L113.613 343.097V334.531L77.6381 355.33V363.896Z" fill="#E9EAF2"/>
<path d="M116.789 341.258L127.371 335.148V326.582L116.789 332.704V341.258Z" fill="#FCA70D"/>
<path opacity="0.4" d="M377.527 418.328L479.919 358.698L469.882 351.805L367.502 411.435L377.527 418.328Z" fill="#D6D8E5"/>
<path d="M371.97 409.467L457.678 359.921C463.531 356.54 468.259 347.476 468.259 339.681V201.556C468.259 193.749 463.52 190.166 457.678 193.547L371.97 243.093C366.128 246.474 361.388 255.538 361.388 263.333V401.459C361.388 409.325 366.128 412.884 371.97 409.467Z" fill="#C4C7D6"/>
<path d="M371.389 413.822L364.788 409.859L371.448 399.383L371.389 413.822Z" fill="#C4C7D6"/>
<path d="M470.107 196.361L464.1 192.73L464.313 202.412L470.107 196.361Z" fill="#C4C7D6"/>
<path d="M378.036 413.147L463.792 363.589C469.634 360.22 474.374 351.191 474.374 343.349V205.259C474.374 197.464 469.634 193.869 463.792 197.25L378.036 246.784C372.195 250.166 367.455 259.23 367.455 267.037V405.126C367.502 412.886 372.242 416.516 378.036 413.147Z" fill="#D6D8E5"/>
<path d="M383.369 282.85L458.507 239.415V217.406L383.369 260.83V282.85Z" fill="#1D71B8"/>
<path d="M437.344 295.7L457.44 284.073V262.053L437.344 273.68V295.7Z" fill="#1D71B8"/>
<path d="M410.883 310.993L430.992 299.366V277.346L410.883 288.973V310.993Z" fill="#1D71B8"/>
<path d="M384.435 326.276L404.532 314.661V292.641L384.435 304.256V326.276Z" fill="#1D71B8"/>
<path d="M437.344 328.731L457.44 317.104V295.084L437.344 306.711V328.731Z" fill="#1D71B8"/>
<path d="M410.884 344.022L430.992 332.395V310.375L410.884 322.002V344.022Z" fill="#1D71B8"/>
<path d="M384.435 359.317L404.532 347.69V325.67L384.435 337.297V359.317Z" fill="#1D71B8"/>
<path d="M437.344 361.761L457.44 350.134V328.113L437.344 339.74V361.761Z" fill="#1D71B8"/>
<path d="M410.883 377.054L430.992 365.427V343.406L410.883 355.033V377.054Z" fill="#1D71B8"/>
<path d="M384.435 392.347L404.532 380.72V358.699L384.435 370.326V392.347Z" fill="#1D71B8"/>
<path d="M101.574 451.195C99.2045 451.872 97.9011 454.47 95.8511 460.011C94.137 465.034 93.3032 470.316 93.3864 475.624C94.0381 480.844 96.1947 484.902 101.42 489.138L103.909 484.57C103.909 484.57 98.8017 480.049 98.2803 474.829C97.984 471.899 101.42 462.016 101.42 461.778C101.42 461.541 101.574 451.195 101.574 451.195Z" fill="#FFCEA9"/>
<path d="M122.015 571.533C122.804 571.776 123.637 571.845 124.455 571.734C125.274 571.624 126.058 571.336 126.755 570.892C128.034 570.892 135.523 567.962 136.471 570.453C137.289 572.636 134.291 574.653 132.691 575.045C129.196 575.899 126.601 577.643 125.191 577.94C124.654 578.127 124.08 578.183 123.517 578.102C122.954 578.022 122.419 577.807 121.956 577.477C120.901 576.492 121.031 572.838 122.015 571.533Z" fill="#38226D"/>
<path d="M125.179 577.335C126.589 577.038 129.184 575.294 132.68 574.44C134.019 574.12 136.341 572.649 136.566 570.881C136.886 572.886 134.196 574.677 132.68 575.033C129.184 575.888 126.589 577.632 125.179 577.928C124.642 578.116 124.068 578.172 123.505 578.091C122.942 578.011 122.407 577.796 121.944 577.466C121.729 577.228 121.571 576.943 121.482 576.635C122.001 577.032 122.606 577.302 123.247 577.423C123.889 577.545 124.551 577.515 125.179 577.335Z" fill="#9C73FF"/>
<path d="M102.985 561.628C103.669 561.864 104.4 561.932 105.116 561.824C105.832 561.717 106.511 561.438 107.096 561.011C108.281 561.011 115.984 558.187 116.896 560.595C117.69 562.695 114.799 564.641 113.258 565.009C109.893 565.828 107.393 567.512 106.042 567.797C105.525 567.98 104.972 568.035 104.43 567.959C103.888 567.882 103.372 567.676 102.925 567.358C101.942 566.409 102.049 562.885 102.985 561.628Z" fill="#38226D"/>
<path d="M106.041 567.217C107.392 566.932 109.893 565.247 113.258 564.429C114.549 564.12 116.813 562.696 117.002 561.012C117.299 562.946 114.692 564.666 113.258 565.01C109.893 565.829 107.392 567.513 106.041 567.798C105.525 567.981 104.972 568.036 104.43 567.96C103.887 567.883 103.371 567.677 102.925 567.359C102.716 567.129 102.566 566.853 102.487 566.552C102.986 566.933 103.568 567.191 104.185 567.306C104.803 567.422 105.438 567.391 106.041 567.217Z" fill="#9C73FF"/>
<path d="M100.472 542.597C100.47 539.718 100.967 536.859 101.942 534.15C101.942 534.15 100.958 522.582 100.224 514.989C99.1453 503.789 97.4271 502.685 97.9129 495.887C98.3632 489.575 101.942 485.482 102.878 481.211L121.138 482.658C121.138 482.658 122.726 487.831 124.776 498.153C126.826 508.475 126.956 520.755 126.767 537.021C126.707 541.209 127.478 544.852 127.229 555.292C127.063 562.316 126.672 570.906 126.672 570.906C123.994 573.207 122.145 571.511 122.145 571.511C122.145 571.511 117.465 550.724 116.777 545.943C116.28 543.303 116.501 540.578 117.417 538.053C117.417 538.053 116.043 531.516 115.047 526.379C113.803 520.114 110.746 506.577 110.746 506.577C110.746 506.577 111.267 527.375 110.355 531.492C109.443 535.609 109.289 539.157 108.518 544.733C107.582 551.484 107.156 561.343 107.156 561.343C104.371 563.111 103.139 561.746 103.139 561.746C103.139 561.746 100.472 548.494 100.472 542.597Z" fill="#FFCEA9"/>
<path d="M102.878 481.211C100.97 483.169 97.8063 489.136 97.8063 498.165C97.8063 508.321 99.2875 506.257 99.9866 517.457L100.698 528.645C100.698 528.645 115.948 535.93 126.826 529.167C127.798 527.055 126.459 503.528 124.563 495.163C122.667 486.799 121.328 482.694 121.328 482.694C121.328 482.694 107.298 486.443 102.878 481.211Z" fill="#1D71B8"/>
<path d="M102.664 451.087C106.551 450.861 106.918 451.502 107.238 450.126C107.345 449.627 107.558 446.198 107.558 446.198C107.201 445.744 106.876 445.264 106.587 444.763C104.811 443.674 103.421 442.055 102.612 440.134C101.803 438.213 101.617 436.086 102.079 434.053C102.54 432.02 103.627 430.183 105.186 428.801C106.745 427.419 108.698 426.562 110.769 426.349C115.936 425.803 119.728 429.434 120.735 434.417C121.28 436.873 121.849 441.903 120.32 445.925C119.455 448.203 118.661 449.805 116.599 449.722C115.915 449.66 115.238 449.541 114.573 449.366C114.462 450.311 114.423 451.263 114.455 452.214C114.514 453.21 114.336 453.72 116.291 454.919C118.247 456.117 113.341 458.585 110.153 458.348C106.966 458.11 103.363 456.164 102.368 454.1C101.278 451.786 100.828 451.205 102.664 451.087Z" fill="#FFCEA9"/>
<path d="M99.7968 468.351C99.7968 468.351 95.4005 467.355 93.3861 465.397C93.3861 465.397 96.0049 457.151 97.6757 455.075C99.3465 452.999 100.97 466.323 100.97 466.323L99.7968 468.351Z" fill="#EDEDED"/>
<path d="M106.515 451.003C105.804 451.905 105.721 453.032 108.494 453.732C110.511 454.308 112.667 454.144 114.573 453.269C116.761 454.192 118.863 455.307 120.853 456.603C123.223 464.398 121.304 465.394 122.299 470.983C121.92 473.794 121.446 481.044 121.327 482.693C116.042 486.394 105.295 485.137 102.877 481.21C102.84 479.898 102.718 478.59 102.51 477.294C99.9862 467.922 98.0073 465.43 98.7183 458.311C99.1212 454.266 99.4293 452.237 101.574 451.193C103.206 450.914 104.867 450.85 106.515 451.003Z" fill="#F4F4F4"/>
<path d="M155.158 481.507C153.953 481.773 152.766 482.114 151.603 482.528C150.523 483.101 149.359 483.501 148.155 483.714C146.852 483.928 144.825 483.251 141.318 481.59C137.482 479.621 134.012 477.009 131.056 473.867C127.7 469.864 124.699 465.577 122.086 461.053C120.569 458.277 118.638 457.577 116.967 458.123C114.964 458.787 114.716 460.768 116.967 464.517C119.839 469.396 123.285 473.913 127.229 477.972C130.326 481.082 133.934 483.638 137.893 485.529C140.73 487 143.763 488.055 146.899 488.662C148.001 488.899 148.748 489.35 150.774 490.062C152.788 490.8 154.951 491.04 157.078 490.762C158.843 490.418 159.448 490.014 159.519 489.575C159.59 489.136 159.223 488.84 158.405 488.899C157.106 489.101 155.782 489.069 154.495 488.804C154.495 488.804 156.296 488.745 157.386 488.614C158.346 488.504 159.286 488.264 160.182 487.902C161.047 487.534 161.367 486.182 160.502 486.229C159.637 486.277 159.033 486.526 157.433 486.692C156.583 486.795 155.724 486.795 154.874 486.692C155.935 486.518 156.981 486.26 158.002 485.921C158.843 485.695 159.601 485.229 160.182 484.58C160.479 484.236 160.396 483.394 159.377 483.595C158.14 484.034 156.855 484.321 155.549 484.45C154.234 484.45 153.31 484.343 153.475 484.129C153.641 483.916 154.412 483.963 155.419 483.394C156.426 482.824 156.983 481.768 156.604 481.258C156.225 480.748 156.225 481.116 155.158 481.507Z" fill="#FFCEA9"/>
<path d="M119.088 469.014C122.151 468.565 124.984 467.128 127.157 464.921L122.275 458.134C122.275 458.134 119.526 454.658 115.9 456.628C115.9 456.628 113.151 456.924 115.9 462.655C116.836 464.836 117.901 466.959 119.088 469.014Z" fill="#EDEDED"/>
<path d="M121.683 431.475C121.485 430.31 120.84 429.269 119.886 428.573C118.932 427.877 117.744 427.581 116.576 427.75C114.872 426.598 112.81 426.101 110.77 426.35C106.136 426.824 103.103 429.838 101.693 434.489C101.011 436.812 100.554 439.196 100.33 441.607C98.9319 451.941 95.1874 460.151 98.6949 463.212C102.202 466.274 111.801 468.231 115.806 466.273C119.811 464.316 112.5 446.531 120.451 436.613C122.311 434.299 122.489 432.65 121.683 431.475Z" fill="#3A2C6D"/>
<path d="M556.965 427.655C555.152 429.126 552.486 427.785 552.355 427.916C550.233 429.889 548.006 431.746 545.684 433.48C544.499 434.37 542.804 435.556 543.124 437.253C543.693 440.302 548.563 439.365 550.4 438.439C552.237 437.514 553.742 435.96 555.483 434.88C556.668 434.109 557.948 433.694 558.138 432.139C558.316 431.178 557.344 427.619 556.965 427.655Z" fill="#38226D"/>
<path d="M558.15 431.498C557.913 433.005 556.704 433.42 555.472 434.179C553.706 435.283 552.154 436.873 550.317 437.798C548.481 438.723 544.392 439.518 543.207 437.335C543.847 440.278 548.646 439.352 550.459 438.439C552.272 437.525 553.801 435.959 555.543 434.879C556.728 434.108 558.008 433.693 558.197 432.139C558.21 431.924 558.195 431.708 558.15 431.498Z" fill="#9C73FF"/>
<path d="M541.335 421.818C539.534 423.289 536.371 421.675 536.228 421.818C534.356 423.723 532.378 425.521 530.304 427.204C529.178 428.094 527.412 429.28 527.732 430.977C528.301 434.026 533.183 433.089 535.02 432.163C536.856 431.238 538.361 429.684 540.103 428.604C541.288 427.833 542.568 427.418 542.757 425.863C542.852 424.914 541.655 421.782 541.335 421.818Z" fill="#38226D"/>
<path d="M542.675 425.436C542.438 426.942 541.229 427.358 539.997 428.129C538.231 429.22 536.679 430.81 534.842 431.688C533.005 432.566 528.917 433.397 527.732 431.225C528.372 434.168 533.171 433.242 534.984 432.317C536.797 431.391 538.326 429.837 540.068 428.758C541.312 427.986 542.532 427.571 542.722 426.017C542.729 425.822 542.713 425.627 542.675 425.436Z" fill="#9C73FF"/>
<path d="M557.131 360.857C557.036 363.598 556.183 375.474 555.804 381.762C555.425 388.05 555.342 395.762 555.342 395.762C555.342 395.762 556.42 400.354 557.131 405.74C557.842 411.126 557.131 428.128 557.131 428.128C556.439 428.569 555.635 428.804 554.814 428.804C553.994 428.804 553.19 428.569 552.498 428.128C552.498 428.128 549.606 414.52 548.267 408.386C546.928 402.252 546.691 398.728 546.004 394.92C545.163 390.328 543.35 368.877 543.35 368.877H542.615L540.684 393.093C541.269 394.881 541.666 396.726 541.869 398.598C542.39 402.537 541.312 422.386 541.312 422.386C540.54 422.815 539.665 423.023 538.783 422.987C537.901 422.952 537.046 422.674 536.311 422.184C536.311 422.184 531.477 395.893 531.477 391.894C531.477 389.249 531.939 354.367 531.939 354.367L557.131 360.857Z" fill="#1D71B8"/>
<path d="M550.578 307.967C550.578 307.967 550.27 313.899 550.4 314.457C550.53 315.014 553.137 316.735 553.896 317.363C554.654 317.992 549.772 322.809 547.402 323.901C545.032 324.992 537.519 322.121 537.377 318.419C537.235 314.718 538.669 311.621 539.818 311.455C540.968 311.289 550.578 307.967 550.578 307.967Z" fill="#FFCEA9"/>
<path d="M534.249 319.034C533.905 316.4 535.635 313.909 533.953 311.809C528.028 317.587 528.822 332.856 527.483 342.656C523.122 347.236 514.342 351.732 511.877 352.848C511.427 353.061 511.036 353.275 511.119 353.761C511.445 355.375 512.13 356.896 513.121 358.21C518.928 355.695 523.11 354.259 530.374 347.354C531.059 346.622 531.673 345.828 532.211 344.981C534.332 338.705 534.853 323.578 534.249 319.034Z" fill="#FFCEA9"/>
<path d="M551.242 315.49C551.242 315.49 546.917 321.944 540.885 322.549C538.977 320.674 538.811 313.995 541.442 311.871C541.442 311.871 539.072 309.913 537.366 310.293C535.59 311.369 534.267 313.056 533.645 315.039C532.113 319.477 531.39 324.155 531.512 328.849C531.619 335.185 531.512 354.523 531.512 354.523C531.512 354.523 532.365 358.617 537.816 361.642C543.267 364.668 547.296 364.988 551.028 364.122C554.086 363.41 556.609 362.33 557.664 360.112C557.392 355.674 555.413 344.095 556.147 338.518C556.882 332.942 558.067 328.778 558.375 324.281C558.683 319.785 557.783 319.868 555.519 318.254C554.159 317.235 552.73 316.311 551.242 315.49Z" fill="#F4F4F4"/>
<path d="M537.093 299.067C537.804 294.44 541.134 290.928 545.897 291.189C547.818 291.286 549.661 291.985 551.163 293.188C552.666 294.39 553.753 296.035 554.27 297.89C554.788 299.745 554.71 301.716 554.047 303.524C553.384 305.332 552.171 306.886 550.578 307.966C550.41 308.669 550.159 309.35 549.831 309.995C548.149 311.964 543.041 313.186 541.537 312.972C540.665 312.895 539.836 312.557 539.158 312.003C538.48 311.449 537.983 310.704 537.733 309.864C536.204 306.222 536.702 301.357 537.093 299.067Z" fill="#FFCEA9"/>
<path d="M550.578 307.966L550.14 303.92C550.14 303.92 553.41 295.425 545.649 297.015C540.506 298.107 539.214 298.569 537.65 295.117C536.086 291.664 541.596 288.556 548.149 289.422C550.407 289.657 552.494 290.732 553.998 292.435C555.501 294.138 556.311 296.344 556.266 298.617C556.088 301.156 555.413 306.305 550.578 307.966Z" fill="#3A2C6D"/>
<path d="M559.702 321.609C557.438 320.969 559.157 321.503 557.438 320.969C551.514 326.735 552.296 336.642 550.957 346.418C547.71 351.792 535.635 359.077 535.635 359.077C535.481 360.109 535.849 360.418 537.152 362.53C543.861 359.948 549.965 356.006 555.08 350.95C555.365 350.677 555.78 350.606 555.898 350.238C557.995 343.998 560.294 326.154 559.702 321.609Z" fill="#FFCEA9"/>
<path d="M506.071 333.666L514.839 363.647L534.047 371.335L527.044 342.125L506.071 333.666Z" fill="#F4F4F4"/>
<path d="M538.693 359.29C538.409 358.27 537.662 358.519 536.833 358.78C535.93 359.139 534.941 359.226 533.989 359.029C533.247 358.665 532.561 358.198 531.951 357.641C531.563 357.411 531.122 357.288 530.671 357.285C530.671 357.534 531.11 359.065 531.11 359.065C531.11 359.065 526.903 359.065 526.464 359.065C526.316 359.033 526.161 359.05 526.023 359.113C525.885 359.175 525.77 359.281 525.696 359.413C525.622 359.546 525.592 359.699 525.611 359.849C525.63 360 525.696 360.141 525.801 360.251H525.517C524.651 360.05 524.332 361.378 525.149 361.58L525.86 361.687C525.291 361.9 525.149 362.873 525.86 362.968H526.085C526.187 362.991 526.292 362.991 526.393 362.968H526.524C526.503 363.069 526.503 363.173 526.524 363.273C526.545 363.374 526.586 363.469 526.645 363.554C526.704 363.638 526.779 363.71 526.866 363.764C526.953 363.818 527.05 363.854 527.152 363.87C529.214 364.131 532.235 364.95 534.096 363.253C535.388 363.129 536.649 362.788 537.828 362.244C539.001 361.663 539.037 360.512 538.693 359.29Z" fill="#FFCEA9"/>
<path d="M517.66 356.836H517.375C517.498 356.749 517.59 356.626 517.639 356.483C517.687 356.341 517.689 356.187 517.644 356.043C517.599 355.899 517.51 355.773 517.389 355.684C517.269 355.594 517.123 355.545 516.973 355.543C516.534 355.543 512.233 354.641 512.233 354.641L511.711 352.862C511.711 352.755 510.965 353.218 510.941 353.229C510.565 353.463 510.246 353.779 510.008 354.152C509.77 354.526 509.619 354.949 509.567 355.389C509.511 356.62 509.936 357.824 510.752 358.746C511.534 359.529 512.585 359.983 513.69 360.016L515.183 360.111C515.285 360.119 515.388 360.106 515.484 360.073C515.581 360.04 515.67 359.987 515.746 359.918C515.821 359.849 515.882 359.765 515.924 359.672C515.966 359.579 515.988 359.478 515.989 359.375H516.202C516.304 359.397 516.409 359.397 516.51 359.375H516.676C517.411 359.375 517.47 358.45 516.973 358.118C517.21 358.118 517.447 358.118 517.684 358.118C518.62 358.213 518.549 356.836 517.66 356.836Z" fill="#FFCEA9"/>
<path d="M531.808 322.951C530.618 322.896 529.495 322.386 528.668 321.527C528.834 319.308 531.666 310.849 537.366 310.268C535.816 311.357 534.588 312.845 533.811 314.574C532.93 317.311 532.26 320.111 531.808 322.951Z" fill="#EDEDED"/>
<path d="M560.721 334.066C560.721 334.066 555.057 336.024 551.064 332.737C550.625 331.978 553.434 322.32 553.434 322.32C553.434 322.32 555.804 317.373 559.536 319.342C563.269 321.312 560.721 334.066 560.721 334.066Z" fill="#EDEDED"/>
</svg>
