<svg width="16" height="20" viewBox="0 0 16 20" fill="none" xmlns="http://www.w3.org/2000/svg">
<rect width="16" height="20" fill="#E5E5E5"/>
<g clip-path="url(#clip0_3975_8777)">
<rect width="1920" height="2190" transform="translate(-973 -852)" fill="#F5F5F7"/>
<g filter="url(#filter0_d_3975_8777)">
<rect x="-718" y="-232" width="930" height="272" rx="12" fill="white"/>
</g>
<path d="M7.99989 11.429C7.28068 11.429 6.57763 11.2195 5.97963 10.8271C5.38164 10.4347 4.91556 9.87688 4.64033 9.22429C4.3651 8.5717 4.29309 7.8536 4.4334 7.16081C4.57371 6.46802 4.92004 5.83166 5.42859 5.33218C5.93715 4.83271 6.58508 4.49256 7.29047 4.35476C7.99585 4.21695 8.72701 4.28768 9.39146 4.55799C10.0559 4.82831 10.6238 5.28607 11.0234 5.87338C11.423 6.4607 11.6362 7.1512 11.6362 7.85756C11.6351 8.80442 11.2516 9.71217 10.5699 10.3817C9.88821 11.0512 8.96396 11.4279 7.99989 11.429ZM7.99989 5.71471C7.56837 5.71471 7.14653 5.84038 6.78774 6.07584C6.42894 6.3113 6.14929 6.64597 5.98415 7.03753C5.81902 7.42908 5.77581 7.85994 5.85999 8.27561C5.94418 8.69129 6.15198 9.07311 6.45711 9.37279C6.76224 9.67248 7.15101 9.87656 7.57424 9.95925C7.99747 10.0419 8.43616 9.99949 8.83483 9.83731C9.23351 9.67512 9.57426 9.40046 9.814 9.04807C10.0537 8.69568 10.1817 8.28138 10.1817 7.85756C10.1811 7.28942 9.95107 6.7447 9.54203 6.34296C9.13298 5.94122 8.57836 5.71527 7.99989 5.71471Z" fill="#1D71B8"/>
<path d="M8 20L1.86473 12.8936C1.77948 12.7869 1.69512 12.6795 1.61164 12.5714C0.56363 11.2156 -0.00253177 9.55945 8.51118e-06 7.85714C8.51118e-06 5.7733 0.842863 3.7748 2.34315 2.3013C3.84344 0.827804 5.87827 0 8 0C10.1217 0 12.1566 0.827804 13.6568 2.3013C15.1571 3.7748 16 5.7733 16 7.85714C16.0025 9.55867 15.4366 11.214 14.3891 12.5693L14.3884 12.5714C14.3884 12.5714 14.1702 12.8529 14.1374 12.8907L8 20ZM2.77237 11.7107C2.77382 11.7107 2.94255 11.9307 2.9811 11.9779L8 17.7914L13.0254 11.97C13.0574 11.9307 13.2276 11.7093 13.2284 11.7086C14.0845 10.6008 14.5471 9.24788 14.5454 7.85714C14.5454 6.15218 13.8558 4.51705 12.6283 3.31146C11.4008 2.10587 9.73596 1.42857 8 1.42857C6.26404 1.42857 4.59918 2.10587 3.37167 3.31146C2.14416 4.51705 1.45455 6.15218 1.45455 7.85714C1.45303 9.24874 1.91621 10.6024 2.7731 11.7107H2.77237Z" fill="#1D71B8"/>
</g>
<defs>
<filter id="filter0_d_3975_8777" x="-724" y="-236" width="942" height="284" filterUnits="userSpaceOnUse" color-interpolation-filters="sRGB">
<feFlood flood-opacity="0" result="BackgroundImageFix"/>
<feColorMatrix in="SourceAlpha" type="matrix" values="0 0 0 0 0 0 0 0 0 0 0 0 0 0 0 0 0 0 127 0" result="hardAlpha"/>
<feOffset dy="2"/>
<feGaussianBlur stdDeviation="3"/>
<feComposite in2="hardAlpha" operator="out"/>
<feColorMatrix type="matrix" values="0 0 0 0 0 0 0 0 0 0 0 0 0 0 0 0 0 0 0.25 0"/>
<feBlend mode="normal" in2="BackgroundImageFix" result="effect1_dropShadow_3975_8777"/>
<feBlend mode="normal" in="SourceGraphic" in2="effect1_dropShadow_3975_8777" result="shape"/>
</filter>
<clipPath id="clip0_3975_8777">
<rect width="1920" height="2190" fill="white" transform="translate(-973 -852)"/>
</clipPath>
</defs>
</svg>
