<svg width="32" height="32" viewBox="0 0 32 32" fill="none" xmlns="http://www.w3.org/2000/svg">
<path d="M14.4781 5.28186H4.42807C3.66652 5.28186 2.93616 5.56632 2.39766 6.07267C1.85917 6.57902 1.55664 7.26578 1.55664 7.98186V26.8819C1.55664 27.5979 1.85917 28.2847 2.39766 28.791C2.93616 29.2974 3.66652 29.5819 4.42807 29.5819H24.5281C25.2896 29.5819 26.02 29.2974 26.5585 28.791C27.097 28.2847 27.3995 27.5979 27.3995 26.8819V17.4319" stroke="#323232" stroke-width="3" stroke-linecap="round" stroke-linejoin="round"/>
<path d="M25.2469 3.25687C25.818 2.71981 26.5927 2.41809 27.4004 2.41809C28.2082 2.41809 28.9829 2.71981 29.554 3.25687C30.1252 3.79394 30.4461 4.52235 30.4461 5.28187C30.4461 6.0414 30.1252 6.76981 29.554 7.30687L15.9147 20.1319L10.1719 21.4819L11.6076 16.0819L25.2469 3.25687Z" stroke="#323232" stroke-width="3" stroke-linecap="round" stroke-linejoin="round"/>
</svg>
