<svg width="89" height="68" viewBox="0 0 39 48" fill="none" xmlns="http://www.w3.org/2000/svg">
<g filter="url(#filter0_dd_3986_11827)">
<path d="M26.8166 21.2073C26.7183 21.0592 26.5859 20.938 26.4308 20.8543C26.2758 20.7706 26.1029 20.727 25.9274 20.7273H22.7134V18.5455H25.0703C25.3545 18.5455 25.627 18.4305 25.8279 18.2259C26.0288 18.0213 26.1417 17.7439 26.1417 17.4545V13.0909C26.1417 12.8016 26.0288 12.5241 25.8279 12.3195C25.627 12.1149 25.3545 12 25.0703 12H21.6421C19.9941 12 18.4136 12.6666 17.2483 13.8532C16.0829 15.0398 15.4283 16.6492 15.4283 18.3273V20.7273H13.0713C12.7872 20.7273 12.5147 20.8422 12.3138 21.0468C12.1129 21.2514 12 21.5289 12 21.8182V26.1818C12 26.4711 12.1129 26.7486 12.3138 26.9532C12.5147 27.1578 12.7872 27.2727 13.0713 27.2727H15.4283V34.9091C15.4283 35.1984 15.5412 35.4759 15.7421 35.6805C15.943 35.8851 16.2155 36 16.4996 36H21.6421C21.9262 36 22.1987 35.8851 22.3996 35.6805C22.6005 35.4759 22.7134 35.1984 22.7134 34.9091V27.2727H24.2133C24.4278 27.2729 24.6375 27.2075 24.8152 27.085C24.9928 26.9625 25.1302 26.7884 25.2096 26.5855L26.9238 22.2218C26.9885 22.0566 27.0125 21.8778 26.9939 21.701C26.9752 21.5242 26.9143 21.3547 26.8166 21.2073ZM23.4848 25.0909H21.6421C21.3579 25.0909 21.0854 25.2058 20.8845 25.4104C20.6836 25.615 20.5707 25.8925 20.5707 26.1818V33.8182H17.571V26.1818C17.571 25.8925 17.4581 25.615 17.2572 25.4104C17.0563 25.2058 16.7838 25.0909 16.4996 25.0909H14.1427V22.9091H16.4996C16.7838 22.9091 17.0563 22.7942 17.2572 22.5896C17.4581 22.385 17.571 22.1075 17.571 21.8182V18.3273C17.5738 17.2287 18.0036 16.176 18.7665 15.3992C19.5293 14.6224 20.5632 14.1847 21.6421 14.1818H23.999V16.3636H23.1419C22.7792 16.3098 22.4095 16.3324 22.0556 16.43C21.7018 16.5276 21.3714 16.6981 21.085 16.9309C20.9111 17.1163 20.7759 17.3355 20.6875 17.5755C20.5991 17.8155 20.5594 18.0712 20.5707 18.3273V21.8182C20.5707 22.1075 20.6836 22.385 20.8845 22.5896C21.0854 22.7942 21.3579 22.9091 21.6421 22.9091H24.3418L23.4848 25.0909Z" fill="#1D71B8"/>
</g>
<defs>
<filter id="filter0_dd_3986_11827" x="0.126801" y="0.126801" width="38.7464" height="47.7464" filterUnits="userSpaceOnUse" color-interpolation-filters="sRGB">
<feFlood flood-opacity="0" result="BackgroundImageFix"/>
<feColorMatrix in="SourceAlpha" type="matrix" values="0 0 0 0 0 0 0 0 0 0 0 0 0 0 0 0 0 0 127 0" result="hardAlpha"/>
<feOffset/>
<feGaussianBlur stdDeviation="4.85722"/>
<feComposite in2="hardAlpha" operator="out"/>
<feColorMatrix type="matrix" values="0 0 0 0 1 0 0 0 0 1 0 0 0 0 1 0 0 0 0.35 0"/>
<feBlend mode="lighten" in2="BackgroundImageFix" result="effect1_dropShadow_3986_11827"/>
<feColorMatrix in="SourceAlpha" type="matrix" values="0 0 0 0 0 0 0 0 0 0 0 0 0 0 0 0 0 0 127 0" result="hardAlpha"/>
<feOffset/>
<feGaussianBlur stdDeviation="5.9366"/>
<feComposite in2="hardAlpha" operator="out"/>
<feColorMatrix type="matrix" values="0 0 0 0 1 0 0 0 0 1 0 0 0 0 1 0 0 0 0.35 0"/>
<feBlend mode="lighten" in2="effect1_dropShadow_3986_11827" result="effect2_dropShadow_3986_11827"/>
<feBlend mode="normal" in="SourceGraphic" in2="effect2_dropShadow_3986_11827" result="shape"/>
</filter>
</defs>
</svg>
