<svg width="60" height="60" viewBox="0 0 60 60" fill="none" xmlns="http://www.w3.org/2000/svg">
<path d="M7.5 20C7.5 21.375 8.625 22.5 10 22.5C11.375 22.5 12.5 21.375 12.5 20V15H17.5C18.875 15 20 13.875 20 12.5C20 11.125 18.875 10 17.5 10H12.5V5C12.5 3.625 11.375 2.5 10 2.5C8.625 2.5 7.5 3.625 7.5 5V10H2.5C1.125 10 0 11.125 0 12.5C0 13.875 1.125 15 2.5 15H7.5V20Z" fill="#1D71B8"/>
<path d="M32.5 42.5C36.6421 42.5 40 39.1421 40 35C40 30.8579 36.6421 27.5 32.5 27.5C28.3579 27.5 25 30.8579 25 35C25 39.1421 28.3579 42.5 32.5 42.5Z" fill="#1D71B8"/>
<path d="M52.5 15H44.575L41.475 11.625C41.0091 11.1135 40.4416 10.7048 39.8089 10.425C39.1761 10.1452 38.4919 10.0004 37.8 10H21.8C22.225 10.75 22.5 11.575 22.5 12.5C22.5 15.25 20.25 17.5 17.5 17.5H15V20C15 22.75 12.75 25 10 25C9.075 25 8.25 24.725 7.5 24.3V50C7.5 52.75 9.75 55 12.5 55H52.5C55.25 55 57.5 52.75 57.5 50V20C57.5 17.25 55.25 15 52.5 15ZM32.5 47.5C25.6 47.5 20 41.9 20 35C20 28.1 25.6 22.5 32.5 22.5C39.4 22.5 45 28.1 45 35C45 41.9 39.4 47.5 32.5 47.5Z" fill="#1D71B8"/>
</svg>
