<svg width="61" height="60" viewBox="0 0 61 60" fill="none" xmlns="http://www.w3.org/2000/svg">
<g clip-path="url(#clip0_5601_2015)">
<path d="M8.03297 20C8.03297 21.375 9.15647 22.5 10.5296 22.5C11.9028 22.5 13.0263 21.375 13.0263 20V15H18.0196C19.3928 15 20.5163 13.875 20.5163 12.5C20.5163 11.125 19.3928 10 18.0196 10H13.0263V5C13.0263 3.625 11.9028 2.5 10.5296 2.5C9.15647 2.5 8.03297 3.625 8.03297 5V10H3.03964C1.66647 10 0.542969 11.125 0.542969 12.5C0.542969 13.875 1.66647 15 3.03964 15H8.03297V20Z" fill="#808080"/>
<path d="M32.9998 42.5C37.1364 42.5 40.4898 39.1421 40.4898 35C40.4898 30.8579 37.1364 27.5 32.9998 27.5C28.8632 27.5 25.5098 30.8579 25.5098 35C25.5098 39.1421 28.8632 42.5 32.9998 42.5Z" fill="#808080"/>
<path d="M52.9732 15H45.0588L41.9629 11.625C41.4976 11.1135 40.9309 10.7048 40.299 10.425C39.667 10.1452 38.9838 10.0004 38.2928 10H22.3141C22.7386 10.75 23.0132 11.575 23.0132 12.5C23.0132 15.25 20.7662 17.5 18.0199 17.5H15.5232V20C15.5232 22.75 13.2762 25 10.5299 25C9.6061 25 8.7822 24.725 8.0332 24.3V50C8.0332 52.75 10.2802 55 13.0265 55H52.9732C55.7195 55 57.9665 52.75 57.9665 50V20C57.9665 17.25 55.7195 15 52.9732 15ZM32.9999 47.5C26.1091 47.5 20.5165 41.9 20.5165 35C20.5165 28.1 26.1091 22.5 32.9999 22.5C39.8907 22.5 45.4832 28.1 45.4832 35C45.4832 41.9 39.8907 47.5 32.9999 47.5Z" fill="#808080"/>
</g>
<defs>
<clipPath id="clip0_5601_2015">
<rect width="59.92" height="60" fill="white" transform="translate(0.542969)"/>
</clipPath>
</defs>
</svg>
