<svg width="48" height="48" viewBox="0 0 48 48" fill="none" xmlns="http://www.w3.org/2000/svg">
<g filter="url(#filter0_dd_3986_11828)">
<path d="M24 18C22.8133 18 21.6533 18.3519 20.6666 19.0112C19.6799 19.6705 18.9108 20.6075 18.4567 21.7039C18.0026 22.8003 17.8838 24.0067 18.1153 25.1705C18.3468 26.3344 18.9182 27.4035 19.7574 28.2426C20.5965 29.0818 21.6656 29.6532 22.8295 29.8847C23.9933 30.1162 25.1997 29.9974 26.2961 29.5433C27.3925 29.0892 28.3295 28.3201 28.9888 27.3334C29.6481 26.3467 30 25.1867 30 24C30 22.4087 29.3679 20.8826 28.2426 19.7574C27.1174 18.6321 25.5913 18 24 18ZM24 27.6C23.288 27.6 22.592 27.3889 21.9999 26.9933C21.4079 26.5977 20.9465 26.0355 20.674 25.3777C20.4016 24.7198 20.3303 23.996 20.4692 23.2977C20.6081 22.5993 20.9509 21.9579 21.4544 21.4544C21.9579 20.9509 22.5993 20.6081 23.2977 20.4692C23.996 20.3303 24.7198 20.4016 25.3777 20.674C26.0355 20.9465 26.5977 21.4079 26.9933 21.9999C27.3889 22.592 27.6 23.288 27.6 24C27.6 24.9548 27.2207 25.8705 26.5456 26.5456C25.8705 27.2207 24.9548 27.6 24 27.6ZM30 16.8C29.7627 16.8 29.5307 16.8704 29.3333 17.0022C29.136 17.1341 28.9822 17.3215 28.8913 17.5408C28.8005 17.7601 28.7768 18.0013 28.8231 18.2341C28.8694 18.4669 28.9836 18.6807 29.1515 18.8485C29.3193 19.0164 29.5331 19.1306 29.7659 19.1769C29.9987 19.2232 30.2399 19.1995 30.4592 19.1087C30.6785 19.0178 30.8659 18.864 30.9978 18.6667C31.1296 18.4693 31.2 18.2373 31.2 18C31.2 17.6817 31.0736 17.3765 30.8485 17.1515C30.6235 16.9264 30.3183 16.8 30 16.8ZM35.928 19.488C35.9081 18.4625 35.7133 17.4479 35.352 16.488C35.0169 15.6145 34.5019 14.8212 33.8404 14.1596C33.1788 13.4981 32.3855 12.9831 31.512 12.648C30.5521 12.2867 29.5375 12.0919 28.512 12.072C27.348 12 26.964 12 24 12C21.036 12 20.652 12 19.488 12.072C18.4625 12.0919 17.4479 12.2867 16.488 12.648C15.6145 12.9831 14.8212 13.4981 14.1596 14.1596C13.4981 14.8212 12.9831 15.6145 12.648 16.488C12.2867 17.4479 12.0919 18.4625 12.072 19.488C12 20.664 12 21.048 12 24C12 26.952 12 27.336 12.072 28.512C12.0919 29.5375 12.2867 30.5521 12.648 31.512C12.9831 32.3855 13.4981 33.1788 14.1596 33.8404C14.8212 34.5019 15.6145 35.0169 16.488 35.352C17.4479 35.7133 18.4625 35.9081 19.488 35.928C20.688 35.928 21.036 36 24 36C26.964 36 27.348 36 28.512 35.928C29.5375 35.9081 30.5521 35.7133 31.512 35.352C32.3855 35.0169 33.1788 34.5019 33.8404 33.8404C34.5019 33.1788 35.0169 32.3855 35.352 31.512C35.7133 30.5521 35.9081 29.5375 35.928 28.512C35.928 27.312 36 26.952 36 24C36 21.048 36 20.664 35.928 19.488ZM33.528 28.404C33.507 29.1655 33.3652 29.9189 33.108 30.636C32.8953 31.2028 32.5592 31.7152 32.124 32.136C31.7057 32.5714 31.1923 32.9041 30.624 33.108C29.9052 33.3757 29.1468 33.5217 28.38 33.54C27.252 33.54 26.904 33.6 23.988 33.6C21.072 33.6 20.736 33.6 19.608 33.6C18.8424 33.5802 18.0849 33.4385 17.364 33.18C16.7972 32.9673 16.2848 32.6312 15.864 32.196C15.4286 31.7777 15.0959 31.2643 14.892 30.696C14.6254 29.9811 14.4794 29.2268 14.46 28.464C14.46 27.264 14.46 26.964 14.46 24.06C14.46 21.156 14.46 20.808 14.46 19.656C14.4807 18.8894 14.6266 18.1314 14.892 17.412C15.0991 16.8488 15.4314 16.3399 15.864 15.924C16.2823 15.4886 16.7957 15.1559 17.364 14.952C18.0828 14.6843 18.8412 14.5383 19.608 14.52C20.736 14.4 21.084 14.4 24 14.4C26.916 14.4 27.264 14.4 28.392 14.4C29.1626 14.4196 29.9247 14.5655 30.648 14.832C31.2112 15.0391 31.7201 15.3714 32.136 15.804C32.5714 16.2223 32.9041 16.7357 33.108 17.304C33.4018 18.0343 33.5682 18.8095 33.6 19.596C33.6 20.796 33.66 21.096 33.66 24C33.66 26.904 33.6 27.252 33.6 28.404H33.528Z" fill="#1D71B8"/>
</g>
<defs>
<filter id="filter0_dd_3986_11828" x="0.126801" y="0.126801" width="47.7464" height="47.7464" filterUnits="userSpaceOnUse" color-interpolation-filters="sRGB">
<feFlood flood-opacity="0" result="BackgroundImageFix"/>
<feColorMatrix in="SourceAlpha" type="matrix" values="0 0 0 0 0 0 0 0 0 0 0 0 0 0 0 0 0 0 127 0" result="hardAlpha"/>
<feOffset/>
<feGaussianBlur stdDeviation="4.85722"/>
<feComposite in2="hardAlpha" operator="out"/>
<feColorMatrix type="matrix" values="0 0 0 0 1 0 0 0 0 1 0 0 0 0 1 0 0 0 0.35 0"/>
<feBlend mode="lighten" in2="BackgroundImageFix" result="effect1_dropShadow_3986_11828"/>
<feColorMatrix in="SourceAlpha" type="matrix" values="0 0 0 0 0 0 0 0 0 0 0 0 0 0 0 0 0 0 127 0" result="hardAlpha"/>
<feOffset/>
<feGaussianBlur stdDeviation="5.9366"/>
<feComposite in2="hardAlpha" operator="out"/>
<feColorMatrix type="matrix" values="0 0 0 0 1 0 0 0 0 1 0 0 0 0 1 0 0 0 0.35 0"/>
<feBlend mode="lighten" in2="effect1_dropShadow_3986_11828" result="effect2_dropShadow_3986_11828"/>
<feBlend mode="normal" in="SourceGraphic" in2="effect2_dropShadow_3986_11828" result="shape"/>
</filter>
</defs>
</svg>
