<svg width="210" height="210" viewBox="0 0 210 210" fill="none" xmlns="http://www.w3.org/2000/svg">
<rect width="210" height="210" rx="105" fill="#1D71B8"/>
<path d="M86.1 91.3025C85.204 91.3025 84.5096 91.0561 84.0168 90.5633C83.5464 90.0705 83.3112 89.3761 83.3112 88.4801V69.8321C83.3112 68.9137 83.5688 68.2193 84.084 67.7489C84.5992 67.2561 85.3272 67.0097 86.268 67.0097C87.052 67.0097 87.668 67.1665 88.116 67.4801C88.5864 67.7713 89.012 68.2641 89.3928 68.9585L96.6168 81.9281H95.4408L102.631 68.9585C103.034 68.2641 103.46 67.7713 103.908 67.4801C104.378 67.1665 105.006 67.0097 105.79 67.0097C106.686 67.0097 107.369 67.2561 107.839 67.7489C108.332 68.2193 108.578 68.9137 108.578 69.8321V88.4801C108.578 89.3761 108.343 90.0705 107.873 90.5633C107.402 91.0561 106.708 91.3025 105.79 91.3025C104.894 91.3025 104.199 91.0561 103.706 90.5633C103.236 90.0705 103.001 89.3761 103.001 88.4801V76.9217H103.706L98.2968 86.3297C97.9832 86.8225 97.6472 87.1921 97.2888 87.4385C96.9528 87.6849 96.4936 87.8081 95.9112 87.8081C95.3512 87.8081 94.892 87.6849 94.5336 87.4385C94.1752 87.1921 93.8504 86.8225 93.5592 86.3297L88.116 76.8881H88.8888V88.4801C88.8888 89.3761 88.6536 90.0705 88.1832 90.5633C87.7128 91.0561 87.0184 91.3025 86.1 91.3025ZM117.341 97.3505C116.646 97.3505 116.086 97.1713 115.661 96.8129C115.235 96.4545 114.966 95.9841 114.854 95.4017C114.765 94.8193 114.866 94.2033 115.157 93.5537L117.408 88.6817V91.1009L111.662 77.9633C111.371 77.2913 111.27 76.6641 111.36 76.0817C111.472 75.4993 111.774 75.0401 112.267 74.7041C112.76 74.3457 113.432 74.1665 114.283 74.1665C115 74.1665 115.571 74.3345 115.997 74.6705C116.445 74.9841 116.848 75.6113 117.206 76.5521L120.566 85.2881H119.424L122.986 76.5185C123.344 75.6001 123.747 74.9841 124.195 74.6705C124.666 74.3345 125.293 74.1665 126.077 74.1665C126.749 74.1665 127.286 74.3457 127.69 74.7041C128.093 75.0401 128.339 75.4993 128.429 76.0817C128.518 76.6641 128.418 77.2913 128.126 77.9633L120.499 95.0993C120.096 95.9953 119.648 96.5889 119.155 96.8801C118.685 97.1937 118.08 97.3505 117.341 97.3505ZM65.2806 127.37C62.6598 127.37 60.4086 126.866 58.527 125.858C56.6454 124.85 55.2006 123.427 54.1926 121.591C53.207 119.754 52.7142 117.603 52.7142 115.139C52.7142 113.303 52.9942 111.634 53.5542 110.133C54.1366 108.632 54.9654 107.344 56.0406 106.269C57.1382 105.194 58.4598 104.376 60.0054 103.816C61.5734 103.234 63.3318 102.943 65.2806 102.943C66.311 102.943 67.375 103.066 68.4726 103.312C69.5926 103.536 70.5782 103.883 71.4294 104.354C72.0566 104.69 72.4934 105.115 72.7398 105.631C72.9862 106.146 73.0646 106.672 72.975 107.21C72.9078 107.747 72.7174 108.229 72.4038 108.655C72.0902 109.08 71.687 109.371 71.1942 109.528C70.7014 109.663 70.1638 109.584 69.5814 109.293C68.9094 108.979 68.2374 108.744 67.5654 108.587C66.9158 108.408 66.2326 108.319 65.5158 108.319C64.127 108.319 62.9622 108.587 62.0214 109.125C61.103 109.64 60.4086 110.402 59.9382 111.41C59.4678 112.418 59.2326 113.661 59.2326 115.139C59.2326 116.618 59.4678 117.872 59.9382 118.903C60.4086 119.911 61.103 120.683 62.0214 121.221C62.9622 121.736 64.127 121.994 65.5158 121.994C66.0982 121.994 66.7254 121.927 67.3974 121.792C68.0694 121.635 68.7302 121.4 69.3798 121.087C70.0518 120.795 70.6454 120.717 71.1606 120.851C71.6982 120.986 72.1238 121.255 72.4374 121.658C72.7734 122.061 72.9862 122.531 73.0758 123.069C73.1654 123.584 73.087 124.099 72.8406 124.615C72.6166 125.13 72.2134 125.544 71.631 125.858C70.847 126.328 69.8726 126.698 68.7078 126.967C67.5654 127.235 66.423 127.37 65.2806 127.37ZM81.1707 127.37C79.8939 127.37 78.7627 127.135 77.7771 126.664C76.8139 126.194 76.0523 125.555 75.4923 124.749C74.9547 123.92 74.6859 122.979 74.6859 121.927C74.6859 120.717 74.9995 119.765 75.6267 119.071C76.2539 118.376 77.2619 117.883 78.6507 117.592C80.0395 117.279 81.8875 117.122 84.1947 117.122H86.0427V119.944H84.1947C83.3211 119.944 82.5931 120.011 82.0107 120.146C81.4507 120.258 81.0363 120.448 80.7675 120.717C80.4987 120.963 80.3643 121.288 80.3643 121.691C80.3643 122.207 80.5435 122.632 80.9019 122.968C81.2827 123.304 81.8203 123.472 82.5147 123.472C83.0747 123.472 83.5675 123.349 83.9931 123.103C84.4411 122.856 84.7995 122.52 85.0683 122.095C85.3371 121.647 85.4715 121.131 85.4715 120.549V116.651C85.4715 115.845 85.2587 115.274 84.8331 114.938C84.4299 114.602 83.7243 114.434 82.7163 114.434C82.1787 114.434 81.5739 114.501 80.9019 114.635C80.2299 114.747 79.4795 114.96 78.6507 115.274C78.0459 115.498 77.5307 115.531 77.1051 115.375C76.6795 115.218 76.3435 114.949 76.0971 114.568C75.8731 114.187 75.7611 113.773 75.7611 113.325C75.7835 112.877 75.9291 112.451 76.1979 112.048C76.4891 111.645 76.9259 111.331 77.5083 111.107C78.5835 110.704 79.5691 110.435 80.4651 110.301C81.3835 110.167 82.2235 110.099 82.9851 110.099C84.8219 110.099 86.3339 110.368 87.5211 110.906C88.7307 111.421 89.6267 112.227 90.2091 113.325C90.8139 114.4 91.1163 115.789 91.1163 117.491V124.279C91.1163 125.264 90.8811 126.015 90.4107 126.53C89.9403 127.045 89.2571 127.303 88.3611 127.303C87.4427 127.303 86.7371 127.045 86.2443 126.53C85.7739 126.015 85.5387 125.264 85.5387 124.279V123.405L85.7403 123.875C85.6283 124.592 85.3707 125.208 84.9675 125.723C84.5643 126.239 84.0379 126.642 83.3883 126.933C82.7387 127.224 81.9995 127.37 81.1707 127.37ZM97.5796 127.303C96.594 127.303 95.8324 127.045 95.2948 126.53C94.7796 126.015 94.522 125.264 94.522 124.279V113.157C94.522 112.194 94.7684 111.455 95.2612 110.939C95.7764 110.424 96.5044 110.167 97.4452 110.167C98.386 110.167 99.1028 110.424 99.5956 110.939C100.088 111.455 100.335 112.194 100.335 113.157V114.535H99.9988C100.223 113.191 100.794 112.127 101.712 111.343C102.653 110.559 103.818 110.144 105.207 110.099C105.856 110.077 106.338 110.245 106.652 110.603C106.988 110.939 107.167 111.578 107.189 112.519C107.189 113.325 107.021 113.963 106.685 114.434C106.349 114.904 105.711 115.184 104.77 115.274L103.997 115.341C102.81 115.453 101.948 115.789 101.41 116.349C100.872 116.887 100.604 117.693 100.604 118.768V124.279C100.604 125.264 100.346 126.015 99.8308 126.53C99.3156 127.045 98.5652 127.303 97.5796 127.303ZM117.8 127.37C115.784 127.37 114.037 127.023 112.559 126.328C111.103 125.611 109.983 124.603 109.199 123.304C108.415 122.005 108.023 120.471 108.023 118.701C108.023 116.999 108.392 115.509 109.131 114.232C109.893 112.933 110.923 111.925 112.223 111.208C113.544 110.469 115.045 110.099 116.725 110.099C117.957 110.099 119.077 110.301 120.085 110.704C121.093 111.085 121.955 111.656 122.672 112.418C123.389 113.157 123.927 114.053 124.285 115.106C124.666 116.159 124.856 117.335 124.856 118.634C124.856 119.082 124.733 119.418 124.487 119.642C124.24 119.843 123.848 119.944 123.311 119.944H113.029V117.122H120.488L119.951 117.559C119.951 116.73 119.839 116.058 119.615 115.543C119.391 115.027 119.055 114.635 118.607 114.367C118.181 114.098 117.643 113.963 116.994 113.963C116.299 113.963 115.695 114.131 115.179 114.467C114.687 114.781 114.306 115.251 114.037 115.879C113.768 116.506 113.634 117.29 113.634 118.231V118.533C113.634 120.123 113.981 121.266 114.675 121.96C115.392 122.632 116.49 122.968 117.968 122.968C118.461 122.968 119.021 122.912 119.648 122.8C120.298 122.666 120.914 122.487 121.496 122.263C122.079 122.039 122.583 122.005 123.008 122.162C123.434 122.296 123.759 122.543 123.983 122.901C124.229 123.237 124.363 123.629 124.386 124.077C124.408 124.503 124.307 124.928 124.083 125.354C123.859 125.757 123.49 126.071 122.975 126.295C122.191 126.653 121.351 126.922 120.455 127.101C119.581 127.28 118.696 127.37 117.8 127.37ZM136.438 127.37C134.422 127.37 132.675 127.023 131.196 126.328C129.74 125.611 128.62 124.603 127.836 123.304C127.052 122.005 126.66 120.471 126.66 118.701C126.66 116.999 127.03 115.509 127.769 114.232C128.531 112.933 129.561 111.925 130.86 111.208C132.182 110.469 133.683 110.099 135.363 110.099C136.595 110.099 137.715 110.301 138.723 110.704C139.731 111.085 140.593 111.656 141.31 112.418C142.027 113.157 142.564 114.053 142.923 115.106C143.303 116.159 143.494 117.335 143.494 118.634C143.494 119.082 143.371 119.418 143.124 119.642C142.878 119.843 142.486 119.944 141.948 119.944H131.667V117.122H139.126L138.588 117.559C138.588 116.73 138.476 116.058 138.252 115.543C138.028 115.027 137.692 114.635 137.244 114.367C136.819 114.098 136.281 113.963 135.631 113.963C134.937 113.963 134.332 114.131 133.817 114.467C133.324 114.781 132.943 115.251 132.675 115.879C132.406 116.506 132.271 117.29 132.271 118.231V118.533C132.271 120.123 132.619 121.266 133.313 121.96C134.03 122.632 135.127 122.968 136.606 122.968C137.099 122.968 137.659 122.912 138.286 122.8C138.935 122.666 139.551 122.487 140.134 122.263C140.716 122.039 141.22 122.005 141.646 122.162C142.071 122.296 142.396 122.543 142.62 122.901C142.867 123.237 143.001 123.629 143.023 124.077C143.046 124.503 142.945 124.928 142.721 125.354C142.497 125.757 142.127 126.071 141.612 126.295C140.828 126.653 139.988 126.922 139.092 127.101C138.219 127.28 137.334 127.37 136.438 127.37ZM149.128 127.303C148.142 127.303 147.381 127.045 146.843 126.53C146.328 126.015 146.07 125.264 146.07 124.279V113.157C146.07 112.194 146.317 111.455 146.81 110.939C147.325 110.424 148.053 110.167 148.994 110.167C149.934 110.167 150.651 110.424 151.144 110.939C151.637 111.455 151.883 112.194 151.883 113.157V114.535H151.547C151.771 113.191 152.342 112.127 153.261 111.343C154.202 110.559 155.366 110.144 156.755 110.099C157.405 110.077 157.886 110.245 158.2 110.603C158.536 110.939 158.715 111.578 158.738 112.519C158.738 113.325 158.57 113.963 158.234 114.434C157.898 114.904 157.259 115.184 156.318 115.274L155.546 115.341C154.358 115.453 153.496 115.789 152.958 116.349C152.421 116.887 152.152 117.693 152.152 118.768V124.279C152.152 125.264 151.894 126.015 151.379 126.53C150.864 127.045 150.114 127.303 149.128 127.303Z" fill="white"/>
<path d="M179.59 148.005C172.033 161.114 161.153 171.999 148.049 179.565C134.944 187.131 120.078 191.11 104.946 191.1C89.8143 191.091 74.9523 187.094 61.8573 179.512C48.7622 171.93 37.8966 161.03 30.3551 147.912C22.8135 134.794 18.8624 119.919 18.8997 104.788C18.937 89.6562 22.9614 74.8016 30.5676 61.7206C38.1738 48.6396 49.093 37.7941 62.2253 30.2768C75.3576 22.7594 90.2391 18.8357 105.371 18.9009" stroke="url(#paint0_linear_4296_8535)" stroke-width="12.6" stroke-linecap="round" stroke-linejoin="round"/>
<path d="M137.989 25.471C155.711 32.8223 170.47 45.8823 179.923 62.578C189.376 79.2737 192.982 98.6485 190.168 117.627" stroke="url(#paint1_linear_4296_8535)" stroke-width="12.6" stroke-linecap="round" stroke-linejoin="round"/>
<path d="M105.099 44.0999C115.948 44.0999 126.6 47.0075 135.949 52.5217C145.299 58.036 153.006 65.9562 158.269 75.4615" stroke="url(#paint2_linear_4296_8535)" stroke-width="12.6" stroke-linecap="round" stroke-linejoin="round"/>
<path d="M133.402 158.794C121.623 165.056 108.115 167.264 94.9596 165.08C81.8042 162.897 69.7291 156.441 60.5953 146.707" stroke="url(#paint3_linear_4296_8535)" stroke-width="12.6" stroke-linecap="round" stroke-linejoin="round"/>
<defs>
<linearGradient id="paint0_linear_4296_8535" x1="166.642" y1="161.806" x2="135.704" y2="12.3571" gradientUnits="userSpaceOnUse">
<stop stop-color="#E6EFF6"/>
<stop offset="1" stop-color="#F9FCFD"/>
</linearGradient>
<linearGradient id="paint1_linear_4296_8535" x1="166.642" y1="161.806" x2="135.704" y2="12.3571" gradientUnits="userSpaceOnUse">
<stop stop-color="#E6EFF6"/>
<stop offset="1" stop-color="#F9FCFD"/>
</linearGradient>
<linearGradient id="paint2_linear_4296_8535" x1="149.864" y1="146.313" x2="127.333" y2="37.6364" gradientUnits="userSpaceOnUse">
<stop stop-color="#E6EFF6"/>
<stop offset="1" stop-color="#F9FCFD"/>
</linearGradient>
<linearGradient id="paint3_linear_4296_8535" x1="149.666" y1="146.313" x2="127.135" y2="37.6364" gradientUnits="userSpaceOnUse">
<stop stop-color="#E6EFF6"/>
<stop offset="1" stop-color="#F9FCFD"/>
</linearGradient>
</defs>
</svg>
