<svg width="48" height="46" viewBox="0 0 48 46" fill="none" xmlns="http://www.w3.org/2000/svg">
<g filter="url(#filter0_dd_3986_11826)">
<path d="M35.1984 12.5186C34.8878 12.2593 34.513 12.0893 34.1138 12.0268C33.7145 11.9643 33.3059 12.0116 32.9313 12.1636L13.3808 20.0854C12.9627 20.258 12.6068 20.5542 12.3603 20.9346C12.1138 21.315 11.9885 21.7616 12.0008 22.2152C12.0132 22.6687 12.1627 23.1078 12.4295 23.4741C12.6964 23.8404 13.0679 24.1165 13.4948 24.266L17.4494 25.6463L19.6536 32.9618C19.6836 33.0595 19.7271 33.1526 19.7828 33.2382C19.7912 33.2513 19.8032 33.2611 19.8122 33.2738C19.8765 33.364 19.9543 33.4437 20.0428 33.5101C20.068 33.5293 20.0921 33.5474 20.119 33.5645C20.2226 33.6334 20.3372 33.6838 20.458 33.7135L20.4709 33.7146L20.4782 33.7177C20.5508 33.7325 20.6247 33.7401 20.6987 33.7402C20.7059 33.7402 20.7122 33.7368 20.7193 33.7366C20.831 33.7347 20.9418 33.7154 21.0477 33.6794C21.0724 33.6709 21.0935 33.6568 21.1174 33.6467C21.1963 33.6138 21.2711 33.5717 21.3402 33.5213C21.3956 33.4745 21.4509 33.4277 21.5063 33.3809L24.4542 30.1145L28.851 33.5328C29.238 33.8352 29.7145 33.9996 30.205 34C30.7191 33.9993 31.2172 33.8213 31.616 33.4959C32.0149 33.1704 32.29 32.7172 32.3955 32.2123L35.9548 14.6763C36.0355 14.2816 36.0077 13.8723 35.8745 13.4923C35.7413 13.1122 35.5076 12.7757 35.1984 12.5186ZM21.1313 25.9949C20.9801 26.1461 20.8767 26.3388 20.8341 26.5487L20.4964 28.1954L19.6411 25.3563L24.076 23.0386L21.1313 25.9949ZM30.188 31.8017L24.9922 27.7622C24.7748 27.5937 24.5021 27.5135 24.2285 27.5376C23.9548 27.5618 23.7003 27.6886 23.5156 27.8927L22.5715 28.9385L22.9052 27.311L30.6323 19.5561C30.8167 19.3712 30.9291 19.1262 30.949 18.8654C30.969 18.6045 30.8952 18.3452 30.741 18.1342C30.5869 17.9233 30.3625 17.7747 30.1086 17.7154C29.8548 17.6562 29.5881 17.6901 29.357 17.8112L18.2673 23.6059L14.2043 22.1137L33.8177 14.2389L30.188 31.8017Z" fill="#1D71B8"/>
</g>
<defs>
<filter id="filter0_dd_3986_11826" x="0.126801" y="0.126801" width="47.7464" height="45.7464"  color-interpolation-filters="sRGB">
<feFlood flood-opacity="0" result="BackgroundImageFix"/>
<feColorMatrix in="SourceAlpha" type="matrix" values="0 0 0 0 0 0 0 0 0 0 0 0 0 0 0 0 0 0 127 0" result="hardAlpha"/>
<feOffset/>
<feGaussianBlur stdDeviation="4.85722"/>
<feComposite in2="hardAlpha" operator="out"/>
<feColorMatrix type="matrix" values="0 0 0 0 1 0 0 0 0 1 0 0 0 0 1 0 0 0 0.35 0"/>
<feBlend mode="lighten" in2="BackgroundImageFix" result="effect1_dropShadow_3986_11826"/>
<feColorMatrix in="SourceAlpha" type="matrix" values="0 0 0 0 0 0 0 0 0 0 0 0 0 0 0 0 0 0 127 0" result="hardAlpha"/>
<feOffset/>
<feGaussianBlur stdDeviation="5.9366"/>
<feComposite in2="hardAlpha" operator="out"/>
<feColorMatrix type="matrix" values="0 0 0 0 1 0 0 0 0 1 0 0 0 0 1 0 0 0 0.35 0"/>
<feBlend mode="lighten" in2="effect1_dropShadow_3986_11826" result="effect2_dropShadow_3986_11826"/>
<feBlend mode="normal" in="SourceGraphic" in2="effect2_dropShadow_3986_11826" result="shape"/>
</filter>
</defs>
</svg>
