<svg width="30" height="31" viewBox="0 0 30 31" fill="none" xmlns="http://www.w3.org/2000/svg">
<path d="M2 7.3999H4.87143H27.8429" stroke="#323232" stroke-width="3" stroke-linecap="round" stroke-linejoin="round"/>
<path d="M9.17824 7.4V4.7C9.17824 3.98392 9.48076 3.29716 10.0193 2.79081C10.5578 2.28446 11.2881 2 12.0497 2H17.7925C18.5541 2 19.2844 2.28446 19.8229 2.79081C20.3614 3.29716 20.6639 3.98392 20.6639 4.7V7.4M24.9711 7.4V26.3C24.9711 27.0161 24.6686 27.7028 24.1301 28.2092C23.5916 28.7155 22.8612 29 22.0997 29H7.74252C6.98097 29 6.25061 28.7155 5.71212 28.2092C5.17362 27.7028 4.87109 27.0161 4.87109 26.3V7.4H24.9711Z" stroke="#323232" stroke-width="3" stroke-linecap="round" stroke-linejoin="round"/>
<path d="M12.0508 14.1499V22.2499" stroke="#323232" stroke-width="3" stroke-linecap="round" stroke-linejoin="round"/>
<path d="M17.793 14.1499V22.2499" stroke="#323232" stroke-width="3" stroke-linecap="round" stroke-linejoin="round"/>
</svg>
