<svg width="32" height="32" viewBox="0 0 32 32" fill="none" xmlns="http://www.w3.org/2000/svg">
<path d="M17.4223 8.22361L23.7764 14.5747L17.4223 8.22361ZM21.5084 2.62851L4.32706 19.8098C3.43931 20.6963 2.83386 21.8258 2.58703 23.0559L1 31L8.94414 29.41C10.1742 29.164 11.3022 28.561 12.1902 27.6729L29.3715 10.4916C29.8878 9.97534 30.2973 9.36241 30.5768 8.68783C30.8562 8.01325 31 7.29024 31 6.56008C31 5.82992 30.8562 5.10691 30.5768 4.43233C30.2973 3.75775 29.8878 3.14481 29.3715 2.62851C28.8552 2.11221 28.2423 1.70266 27.5677 1.42324C26.8931 1.14382 26.1701 1 25.4399 1C24.7098 1 23.9868 1.14382 23.3122 1.42324C22.6376 1.70266 22.0247 2.11221 21.5084 2.62851Z" fill="white" stroke="#1D71B8" stroke-width="1.5" stroke-linecap="round" stroke-linejoin="round"/>
</svg>
