<svg width="20" height="20" viewBox="0 0 20 20" fill="none" xmlns="http://www.w3.org/2000/svg">
<path d="M10.8534 5.33416L14.6658 9.14483L10.8534 5.33416ZM13.305 1.97711L2.99624 12.2859C2.46358 12.8178 2.10032 13.4955 1.95222 14.2335L1 19L5.76648 18.046C6.5045 17.8984 7.18131 17.5366 7.71412 17.0038L18.0229 6.69499C18.3327 6.38521 18.5784 6.01744 18.7461 5.6127C18.9137 5.20795 19 4.77414 19 4.33605C19 3.89795 18.9137 3.46414 18.7461 3.0594C18.5784 2.65465 18.3327 2.28689 18.0229 1.97711C17.7131 1.66732 17.3454 1.42159 16.9406 1.25394C16.5359 1.08629 16.102 1 15.664 1C15.2259 1 14.7921 1.08629 14.3873 1.25394C13.9826 1.42159 13.6148 1.66732 13.305 1.97711Z" fill="white" stroke="#1D71B8" stroke-width="1.5" stroke-linecap="round" stroke-linejoin="round"/>
</svg>
