<svg width="24" height="24" viewBox="0 0 24 24" fill="none" xmlns="http://www.w3.org/2000/svg">
<path d="M24 4.36755C23.1013 4.77581 22.148 5.04378 21.1719 5.16257C22.1887 4.53771 22.9693 3.54822 23.3369 2.36925C22.3704 2.95737 21.3129 3.37174 20.2103 3.59446C19.312 2.61323 18.0324 2 16.6162 2C13.8968 2 11.6921 4.26065 11.6921 7.04888C11.6921 7.44466 11.7357 7.82996 11.8196 8.19959C7.72744 7.98896 4.09931 5.97893 1.67072 2.92422C1.24697 3.66992 1.00416 4.53732 1.00416 5.4625C1.00416 7.21423 1.8735 8.75956 3.19462 9.66504C2.4127 9.63993 1.64798 9.42337 0.964313 9.03344C0.964031 9.05459 0.964031 9.07574 0.964031 9.09699C0.964031 11.5433 2.66128 13.584 4.91372 14.0478C4.18864 14.25 3.42809 14.2796 2.69016 14.1343C3.31669 16.1402 5.13516 17.5999 7.28972 17.6408C5.60456 18.9949 3.48141 19.8021 1.17459 19.8021C0.777094 19.8021 0.385219 19.7782 0 19.7316C2.17903 21.1641 4.76719 22 7.54781 22C16.6047 22 21.5573 14.3064 21.5573 7.63443C21.5573 7.41544 21.5526 7.1977 21.543 6.98121C22.507 6.26664 23.339 5.38157 24 4.36755Z" fill="#55ACEE"/>
</svg>
