<svg width="24" height="24" viewBox="0 0 24 24" fill="none" xmlns="http://www.w3.org/2000/svg">
<path fill-rule="evenodd" clip-rule="evenodd" d="M11.1462 0.0301591C8.28521 0.236075 5.57012 1.48237 3.52487 3.52852C-0.0188848 7.07381 -0.990349 12.3962 1.07242 16.9651C1.25402 17.3673 1.63942 18.0859 1.85684 18.4277C1.91493 18.5191 1.83707 18.7126 0.977938 20.6123C0.459451 21.7588 0.0243653 22.7601 0.0110286 22.8377C-0.0570166 23.2337 0.197225 23.7159 0.56915 23.896C1.02621 24.1174 1.41208 24.0399 4.81233 23.0444C5.59783 22.8144 6.27978 22.6263 6.32782 22.6263C6.37586 22.6263 6.58864 22.7135 6.80071 22.8202C7.88666 23.3664 9.30739 23.7799 10.6629 23.9442C11.3465 24.027 12.8009 24.0159 13.504 23.9224C14.8588 23.7424 16.0224 23.3906 17.2374 22.7936C18.5102 22.1681 19.51 21.457 20.4778 20.4888C23.7773 17.1878 24.8656 12.317 23.2868 7.91646C23.1904 7.64782 22.9476 7.09726 22.7473 6.69294C21.5533 4.28284 19.6724 2.41527 17.2387 1.22314C15.3387 0.292498 13.2321 -0.119991 11.1462 0.0301591ZM13.4101 2.17092C14.4892 2.32643 15.3358 2.58891 16.3451 3.08084C18.366 4.06579 19.9409 5.64133 20.9252 7.66295C21.6278 9.10586 21.9212 10.3859 21.9212 12.0086C21.9212 13.6314 21.6278 14.9114 20.9252 16.3544C19.9417 18.3743 18.3642 19.9525 16.3451 20.9365C14.9041 21.6387 13.6256 21.9321 12.0013 21.9334C10.3324 21.9347 9.07475 21.6346 7.51108 20.8622C6.86674 20.5439 6.6664 20.4654 6.50143 20.4665C6.38826 20.4672 5.53509 20.677 4.60551 20.9328C3.67594 21.1886 2.91044 21.3928 2.90434 21.3868C2.89828 21.3807 3.16755 20.7712 3.50265 20.0325C4.2905 18.2957 4.28553 18.3629 3.69186 17.4583C2.90349 16.2572 2.36782 14.8368 2.15753 13.3896C2.05046 12.653 2.05163 11.332 2.15997 10.6227C2.33335 9.48739 2.58623 8.67148 3.07738 7.66295C3.86594 6.04367 5.00984 4.73625 6.53046 3.71625C7.06557 3.35732 8.12358 2.82701 8.71579 2.62085C9.4687 2.3588 10.5604 2.13738 11.3908 2.07832C11.8271 2.04732 12.8908 2.09608 13.4101 2.17092ZM7.54987 6.70238C7.16052 6.89702 6.65565 7.4389 6.43386 7.90025C6.11411 8.5653 6.06456 9.25709 6.27419 10.129C6.99221 13.1157 11.112 16.7999 14.4401 17.4315C14.9307 17.5246 15.6909 17.5254 16.082 17.4332C17.051 17.2047 17.9056 16.2898 17.957 15.4261C17.9822 15.0032 17.8404 14.7063 17.4302 14.3223C16.8753 13.803 15.9748 13.4159 15.2891 13.4019C14.7879 13.3917 14.6594 13.4846 14.1641 14.2157C13.7578 14.8154 13.6498 14.9041 13.3871 14.8535C13.2025 14.8179 12.3953 14.4271 11.9778 14.1713C10.9882 13.5647 9.96249 12.5252 9.34867 11.5068C9.10176 11.0971 9.12284 11.0016 9.58019 10.4583C9.69979 10.3162 9.86331 10.0676 9.94347 9.9058C10.0791 9.63228 10.0875 9.58619 10.0643 9.24695C10.015 8.52711 9.59164 7.55245 9.11091 7.05183C8.62065 6.54138 8.10353 6.42557 7.54987 6.70238Z" fill="#39AE41"/>
</svg>
