<svg width="13" height="8" viewBox="0 0 13 8" fill="none" xmlns="http://www.w3.org/2000/svg">
<path d="M7.21693 7.20706L12.7123 2.05674C12.8035 1.97214 12.8758 1.8715 12.9252 1.76062C12.9746 1.64973 13 1.5308 13 1.41067C13 1.29055 12.9746 1.17161 12.9252 1.06073C12.8758 0.94984 12.8035 0.849199 12.7123 0.764607C12.5301 0.595128 12.2835 0.5 12.0266 0.5C11.7696 0.5 11.5231 0.595128 11.3409 0.764607L6.47773 5.26886L1.6632 0.764607C1.48096 0.595128 1.23445 0.5 0.977494 0.5C0.720538 0.5 0.474023 0.595128 0.291789 0.764607C0.199886 0.848882 0.126773 0.949381 0.0766859 1.06028C0.0265989 1.17118 0.000534058 1.29028 0 1.41067C0.000534058 1.53106 0.0265989 1.65016 0.0766859 1.76106C0.126773 1.87196 0.199886 1.97246 0.291789 2.05674L5.78716 7.20706C5.87824 7.29942 5.98878 7.37314 6.11182 7.42355C6.23485 7.47397 6.36772 7.5 6.50204 7.5C6.63636 7.5 6.76923 7.47397 6.89227 7.42355C7.01531 7.37314 7.12585 7.29942 7.21693 7.20706Z" fill="#323232"/>
</svg>
