<svg width="368" height="101" viewBox="0 0 368 101" fill="none" xmlns="http://www.w3.org/2000/svg">
<g filter="url(#filter0_d_3987_10752)">
<path d="M25.7356 4.6205L46.1404 49.0203H41.4088L34.5362 34.3984H15.6928L8.87941 48.9963H4L24.665 4.5965L25.7356 4.6205ZM25.1855 14.0525L17.6919 30.1144H32.6436L25.1855 14.0525Z" fill="white"/>
<path d="M53.1909 14.3105H57.5972V30.5405C57.5972 34.5045 57.8081 37.2325 58.23 38.7244C58.8073 40.7956 60.0871 42.5933 61.8437 43.8004C63.7284 45.0486 65.9464 45.6771 68.1958 45.6004C70.4167 45.6706 72.6046 45.0418 74.4592 43.8004C76.1252 42.6582 77.3727 40.9898 78.0079 39.0544C78.4456 37.7104 78.6664 34.8665 78.6703 30.5225V14.3225H83.1712V31.3745C83.1712 36.1745 82.6212 39.7844 81.5211 42.2044C80.4692 44.5727 78.7324 46.5606 76.5411 47.9044C74.3291 49.2764 71.5533 49.9644 68.2136 49.9684C64.8739 49.9724 62.0862 49.2844 59.8506 47.9044C57.6446 46.5552 55.9033 44.5477 54.8647 42.1564C53.7567 39.6964 53.2047 35.9965 53.2087 31.0565L53.1909 14.3105Z" fill="white"/>
<path d="M96.8094 1.40466H101.216V14.3106H108.207V18.1806H101.216V49.0745H96.8094V18.1806H90.7944V14.3106H96.8094V1.40466Z" fill="white"/>
<path d="M157.024 14.3107H161.431V20.3107C162.675 18.3902 164.283 16.7401 166.162 15.4567C168.272 14.1277 170.705 13.4193 173.189 13.4107C174.816 13.4033 176.428 13.7405 177.92 14.4007C179.316 14.9959 180.564 15.8975 181.575 17.0407C182.684 18.4374 183.519 20.0361 184.036 21.7507C185.316 19.2364 187.21 17.0964 189.536 15.5347C191.649 14.1448 194.115 13.407 196.633 13.4107C198.854 13.3599 201.038 13.987 202.903 15.2107C204.73 16.443 206.14 18.2149 206.942 20.2867C207.818 22.4667 208.257 25.7266 208.261 30.0666V49.0745H203.754V30.0966C203.754 26.3726 203.494 23.8106 202.974 22.4107C202.454 21.0264 201.513 19.8456 200.289 19.0387C198.935 18.1663 197.355 17.7235 195.752 17.7667C193.649 17.7552 191.598 18.4259 189.897 19.6807C188.132 20.9548 186.783 22.735 186.023 24.7926C185.207 26.9206 184.799 30.4766 184.799 35.4606V49.0745H180.386V31.2786C180.386 27.0826 180.13 24.2326 179.618 22.7287C179.125 21.2668 178.181 20.0047 176.927 19.1287C175.581 18.2043 173.985 17.7301 172.361 17.7727C170.312 17.7738 168.314 18.4241 166.647 19.6327C164.873 20.8776 163.504 22.6299 162.714 24.6666C161.862 26.7746 161.437 30.0006 161.437 34.3446V49.0745H157.03L157.024 14.3107Z" fill="white"/>
<path d="M263.644 1.40466H268.05V14.3106H275.041V18.1806H268.033V49.0745H263.644V18.1806H257.611V14.3106H263.644V1.40466Z" fill="white"/>
<path d="M283.162 0.000424605C283.64 -0.00709951 284.115 0.0854457 284.557 0.27229C284.998 0.459134 285.397 0.736271 285.729 1.08642C286.073 1.42707 286.345 1.83515 286.529 2.28588C286.714 2.73661 286.805 3.22059 286.799 3.70841C286.804 4.19065 286.711 4.6687 286.527 5.11334C286.343 5.55798 286.071 5.95986 285.729 6.2944C285.395 6.63835 284.998 6.91153 284.559 7.09799C284.12 7.28446 283.649 7.38049 283.174 7.38049C282.698 7.38049 282.227 7.28446 281.789 7.09799C281.35 6.91153 280.952 6.63835 280.619 6.2944C280.277 5.95956 280.006 5.55749 279.823 5.11283C279.64 4.66816 279.549 4.19026 279.554 3.70841C279.547 3.22102 279.638 2.7373 279.821 2.2866C280.004 1.83589 280.275 1.42758 280.619 1.08642C280.946 0.737521 281.341 0.46097 281.779 0.274096C282.216 0.0872214 282.687 -0.00594826 283.162 0.000424605ZM280.974 14.3104H285.38V49.0742H280.974V14.3104Z" fill="white"/>
<path d="M291.306 14.3105H295.996L307.499 39.6484L318.861 14.3105H323.593L307.902 49.0744H307.085L291.306 14.3105Z" fill="white"/>
<path d="M359.139 37.5367L362.859 39.5227C361.805 41.7186 360.375 43.7073 358.636 45.3967C357.069 46.87 355.238 48.0248 353.242 48.7987C351.075 49.6201 348.777 50.0269 346.464 49.9987C340.877 49.9987 336.506 48.1407 333.352 44.4247C330.294 40.9619 328.609 36.4735 328.62 31.8247C328.574 27.5439 329.989 23.3786 332.624 20.0348C336.007 15.6348 340.542 13.4348 346.227 13.4348C352.063 13.4348 356.728 15.6828 360.221 20.1788C362.701 23.3508 363.961 27.3128 364 32.0647H333.162C333.245 36.0927 334.519 39.4047 336.983 42.0007C338.149 43.2581 339.562 44.2529 341.131 44.9207C342.7 45.5884 344.39 45.9141 346.091 45.8767C347.829 45.8685 349.552 45.5455 351.178 44.9227C352.716 44.3725 354.143 43.543 355.389 42.4747C356.876 41.0285 358.14 39.3639 359.139 37.5367ZM359.139 28.1768C358.695 26.1067 357.82 24.1569 356.572 22.4588C355.369 20.9716 353.84 19.7902 352.106 19.0088C350.281 18.1426 348.29 17.696 346.275 17.7008C343.076 17.6429 339.976 18.8229 337.604 21.0008C335.834 22.6008 334.499 25.0008 333.6 28.2008L359.139 28.1768Z" fill="white"/>
<path d="M235.586 49.0741C245.392 49.0741 253.341 40.8648 253.341 30.7382C253.341 20.6115 245.392 12.4022 235.586 12.4022C225.78 12.4022 217.831 20.6115 217.831 30.7382C217.831 40.8648 225.78 49.0741 235.586 49.0741Z" fill="white"/>
<path fill-rule="evenodd" clip-rule="evenodd" d="M148.62 30.7383C148.62 40.8649 140.67 49.0742 130.865 49.0742C121.059 49.0742 113.109 40.8649 113.109 30.7383C113.109 20.6116 121.059 12.4023 130.865 12.4023C140.67 12.4023 148.62 20.6116 148.62 30.7383ZM131.978 17.633L123.086 30.4809C122.627 31.1442 123.102 32.05 123.908 32.05H127.2C127.752 32.05 128.2 32.4977 128.2 33.05V42.7979C128.2 43.7783 129.464 44.1732 130.022 43.367L138.914 30.5191C139.373 29.8558 138.898 28.95 138.092 28.95H134.8C134.248 28.95 133.8 28.5023 133.8 27.95V18.2021C133.8 17.2217 132.536 16.8268 131.978 17.633Z" fill="white"/>
<path d="M12.928 75.16C14.16 75.16 15.264 75.432 16.24 75.976C17.216 76.52 17.976 77.28 18.52 78.256C19.08 79.232 19.36 80.36 19.36 81.64C19.36 82.92 19.08 84.056 18.52 85.048C17.976 86.024 17.216 86.784 16.24 87.328C15.264 87.872 14.16 88.144 12.928 88.144C11.984 88.144 11.12 87.96 10.336 87.592C9.552 87.224 8.904 86.688 8.392 85.984V88H6.184V70.192H8.488V77.2C9 76.528 9.64 76.024 10.408 75.688C11.176 75.336 12.016 75.16 12.928 75.16ZM12.736 86.128C13.552 86.128 14.28 85.944 14.92 85.576C15.576 85.192 16.088 84.664 16.456 83.992C16.84 83.304 17.032 82.52 17.032 81.64C17.032 80.76 16.84 79.984 16.456 79.312C16.088 78.624 15.576 78.096 14.92 77.728C14.28 77.36 13.552 77.176 12.736 77.176C11.936 77.176 11.208 77.36 10.552 77.728C9.896 78.096 9.384 78.624 9.016 79.312C8.648 79.984 8.464 80.76 8.464 81.64C8.464 82.52 8.648 83.304 9.016 83.992C9.384 84.664 9.896 85.192 10.552 85.576C11.208 85.944 11.936 86.128 12.736 86.128ZM33.4478 75.28L27.2798 89.272C26.7358 90.568 26.0958 91.48 25.3598 92.008C24.6398 92.536 23.7678 92.8 22.7438 92.8C22.1198 92.8 21.5118 92.696 20.9198 92.488C20.3438 92.296 19.8638 92.008 19.4798 91.624L20.4638 89.896C21.1198 90.52 21.8798 90.832 22.7438 90.832C23.3038 90.832 23.7678 90.68 24.1358 90.376C24.5198 90.088 24.8638 89.584 25.1678 88.864L25.5758 87.976L19.9598 75.28H22.3598L26.7998 85.456L31.1918 75.28H33.4478ZM56.8274 71.2V88H54.8594L44.7794 75.472V88H42.3794V71.2H44.3474L54.4274 83.728V71.2H56.8274ZM72.5599 83.8H63.6319L61.7839 88H59.3119L66.9199 71.2H69.2959L76.9279 88H74.4079L72.5599 83.8ZM71.7199 81.88L68.0959 73.648L64.4719 81.88H71.7199ZM85.9861 71.2C88.1621 71.2 89.8741 71.72 91.1221 72.76C92.3701 73.8 92.9941 75.232 92.9941 77.056C92.9941 78.88 92.3701 80.312 91.1221 81.352C89.8741 82.392 88.1621 82.912 85.9861 82.912H81.8341V88H79.4341V71.2H85.9861ZM85.9141 80.824C87.4341 80.824 88.5941 80.504 89.3941 79.864C90.1941 79.208 90.5941 78.272 90.5941 77.056C90.5941 75.84 90.1941 74.912 89.3941 74.272C88.5941 73.616 87.4341 73.288 85.9141 73.288H81.8341V80.824H85.9141ZM106.38 83.8H97.4523L95.6043 88H93.1322L100.74 71.2H103.116L110.748 88H108.228L106.38 83.8ZM105.54 81.88L101.916 73.648L98.2923 81.88H105.54Z" fill="white"/>
</g>
<defs>
<filter id="filter0_d_3987_10752" x="0" y="0" width="368" height="100.8" filterUnits="userSpaceOnUse" color-interpolation-filters="sRGB">
<feFlood flood-opacity="0" result="BackgroundImageFix"/>
<feColorMatrix in="SourceAlpha" type="matrix" values="0 0 0 0 0 0 0 0 0 0 0 0 0 0 0 0 0 0 127 0" result="hardAlpha"/>
<feOffset dy="4"/>
<feGaussianBlur stdDeviation="2"/>
<feComposite in2="hardAlpha" operator="out"/>
<feColorMatrix type="matrix" values="0 0 0 0 0 0 0 0 0 0 0 0 0 0 0 0 0 0 0.25 0"/>
<feBlend mode="normal" in2="BackgroundImageFix" result="effect1_dropShadow_3987_10752"/>
<feBlend mode="normal" in="SourceGraphic" in2="effect1_dropShadow_3987_10752" result="shape"/>
</filter>
</defs>
</svg>
