<svg width="41" height="40" viewBox="0 0 41 40" fill="none" xmlns="http://www.w3.org/2000/svg">
<circle cx="20.8379" cy="20" r="20" fill="#333333"/>
<g clip-path="url(#clip0_28_2904)">
<path d="M28.2267 19.7441C28.215 17.5938 29.185 15.9707 31.1484 14.7754C30.0498 13.1992 28.3903 12.332 26.1991 12.1621C24.1247 11.998 21.8575 13.375 21.0278 13.375C20.1513 13.375 18.1412 12.2207 16.5635 12.2207C13.303 12.2734 9.83789 14.8281 9.83789 20.0254C9.83789 21.5605 10.1184 23.1484 10.6793 24.7832C11.4273 26.9336 14.1269 32.207 16.9433 32.1191C18.4158 32.084 19.456 31.0703 21.3726 31.0703C23.2307 31.0703 24.1949 32.1191 25.8368 32.1191C28.6767 32.0781 31.1192 27.2852 31.832 25.1289C28.0222 23.3301 28.2267 19.8555 28.2267 19.7441ZM24.9194 10.123C26.5147 8.22461 26.3686 6.49609 26.3218 5.875C24.9136 5.95703 23.2833 6.83594 22.3542 7.91992C21.3316 9.08008 20.7298 10.5156 20.8583 12.1328C22.3834 12.25 23.7741 11.4648 24.9194 10.123Z" fill="white"/>
</g>
<defs>
<clipPath id="clip0_28_2904">
<rect width="22" height="30" fill="white" transform="translate(9.83789 4)"/>
</clipPath>
</defs>
</svg>
