<svg width="40" height="40" viewBox="0 0 40 40" fill="none" xmlns="http://www.w3.org/2000/svg">
<path d="M38 23.9997H36V1.99997C36 1.46955 35.7893 0.960846 35.4142 0.585778C35.0391 0.210711 34.5304 0 34 0H6C5.46957 0 4.96086 0.210711 4.58579 0.585778C4.21071 0.960846 4 1.46955 4 1.99997V23.9997H2C1.46957 23.9997 0.960859 24.2104 0.585786 24.5854C0.210714 24.9605 0 25.4692 0 25.9996C0 26.5301 0.210714 27.0388 0.585786 27.4138C0.960859 27.7889 1.46957 27.9996 2 27.9996H18V30.2996L8.9 36.2995C8.52667 36.5306 8.23976 36.8781 8.08354 37.2884C7.92732 37.6988 7.91047 38.1491 8.03559 38.57C8.16071 38.9908 8.42085 39.3588 8.77587 39.6172C9.13089 39.8755 9.56105 40.0098 10 39.9994C10.3932 40.0039 10.7779 39.885 11.1 39.6594L18 35.0995V37.9995C18 38.5299 18.2107 39.0386 18.5858 39.4137C18.9609 39.7887 19.4696 39.9994 20 39.9994C20.5304 39.9994 21.0391 39.7887 21.4142 39.4137C21.7893 39.0386 22 38.5299 22 37.9995V35.0995L28.9 39.6594C29.2221 39.885 29.6068 40.0039 30 39.9994C30.4273 39.9961 30.8423 39.8561 31.1842 39.5998C31.5261 39.3435 31.7769 38.9844 31.8999 38.5752C32.0229 38.166 32.0116 37.7281 31.8677 37.3258C31.7237 36.9235 31.4547 36.5778 31.1 36.3395L22 30.3396V27.9996H38C38.5304 27.9996 39.0391 27.7889 39.4142 27.4138C39.7893 27.0388 40 26.5301 40 25.9996C40 25.4692 39.7893 24.9605 39.4142 24.5854C39.0391 24.2104 38.5304 23.9997 38 23.9997ZM32 23.9997H8V3.99994H32V23.9997ZM14 19.9997C14.3294 19.998 14.6533 19.915 14.9429 19.758C15.2325 19.601 15.4788 19.3749 15.66 19.0997L18.32 15.0998L20.58 17.3798C20.7898 17.5909 21.0442 17.7525 21.3244 17.8529C21.6047 17.9532 21.9038 17.9897 22.2 17.9597C22.4949 17.9274 22.7789 17.8299 23.0314 17.6742C23.2839 17.5185 23.4986 17.3087 23.66 17.0598L27.66 11.0598C27.8956 10.6207 27.9587 10.1095 27.837 9.62623C27.7154 9.14299 27.4177 8.72257 27.0023 8.44731C26.5869 8.17204 26.0837 8.06177 25.5913 8.13809C25.0988 8.2144 24.6526 8.4718 24.34 8.85988L21.68 12.8598L19.42 10.5799C19.2102 10.3687 18.9558 10.2071 18.6756 10.1067C18.3953 10.0064 18.0962 9.96988 17.8 9.99986C17.5051 10.0322 17.2211 10.1298 16.9686 10.2854C16.7161 10.4411 16.5014 10.651 16.34 10.8998L12.34 16.8998C12.0505 17.3407 11.947 17.8781 12.0519 18.395C12.1567 18.9119 12.4616 19.3665 12.9 19.6597C13.2221 19.8853 13.6068 20.0042 14 19.9997Z" fill="#323232"/>
</svg>
