<svg width="40" height="40" viewBox="0 0 40 40" fill="none" xmlns="http://www.w3.org/2000/svg">
<g clip-path="url(#clip0_28_2901)">
<path d="M20 40.0001C31.0457 40.0001 40 31.0458 40 20.0001C40 8.95437 31.0457 6.10352e-05 20 6.10352e-05C8.95431 6.10352e-05 0 8.95437 0 20.0001C0 31.0458 8.95431 40.0001 20 40.0001Z" fill="#3C5A9A"/>
<path d="M26.5032 6.13898H22.0727C19.4435 6.13898 16.5191 7.24478 16.5191 11.0559C16.532 12.3839 16.5191 13.6557 16.5191 15.087H13.4775V19.9271H16.6133V33.861H22.3753V19.8352H26.1785L26.5226 15.0734H22.2761C22.2761 15.0734 22.2856 12.9551 22.2761 12.34C22.2761 10.8339 23.8432 10.9202 23.9374 10.9202C24.6832 10.9202 26.1331 10.9223 26.5054 10.9202V6.13898H26.5032Z" fill="white"/>
</g>
<defs>
<clipPath id="clip0_28_2901">
<rect width="40" height="40" fill="white"/>
</clipPath>
</defs>
</svg>
