<svg width="40" height="40" viewBox="0 0 40 40" fill="none" xmlns="http://www.w3.org/2000/svg">
<path fill-rule="evenodd" clip-rule="evenodd" d="M20 8C15.5818 8 12 11.5817 12 16C12 20.4183 15.5818 24 20 24C24.4183 24 28 20.4183 28 16C28 11.5817 24.4183 8 20 8ZM16 16C16 13.7909 17.7909 12 20 12C22.2092 12 24 13.7909 24 16C24 18.2091 22.2092 20 20 20C17.7909 20 16 18.2091 16 16Z" fill="#323232"/>
<path fill-rule="evenodd" clip-rule="evenodd" d="M34.6562 33.6088C31.0041 37.5402 25.7893 40 20 40C8.95431 40 0 31.0457 0 20C0 8.95431 8.95431 0 20 0C31.0457 0 40 8.95431 40 20C40 25.1272 38.0707 29.8038 34.8984 33.3433C34.9148 33.4085 34.9308 33.4742 34.9464 33.5402L34.6562 33.6088ZM4 20C4 11.1634 11.1634 4 20 4C28.8366 4 36 11.1634 36 20C36 23.5023 34.8747 26.7418 32.9659 29.3767C32.9575 29.3666 32.949 29.3566 32.9405 29.3467C31.9793 28.2186 30.7992 27.4709 29.5075 26.9803C27.0413 26.0436 23.9963 26 21 26H19C16.0314 26 13.1733 26.0355 10.9092 27.0141C9.44473 27.6471 8.31709 28.6195 7.47506 29.9572C5.29981 27.2246 4 23.7641 4 20ZM10.4619 32.8474C13.1253 34.828 16.4258 36 20 36C23.8727 36 27.4241 34.6241 30.192 32.3344C30.0961 32.1903 29.997 32.0597 29.8957 31.9408C29.4404 31.4063 28.8577 31.0123 28.0872 30.7196C26.4287 30.0897 24.151 30 21 30H19C15.8215 30 13.8568 30.0978 12.4962 30.6858C11.7018 31.0292 11.0043 31.5935 10.4619 32.8474Z" fill="#323232"/>
</svg>
