<svg width="39" height="40" viewBox="0 0 39 40" fill="none" xmlns="http://www.w3.org/2000/svg">
<g clip-path="url(#clip0_28_2899)">
<path d="M12.9609 31.0469C12.9609 31.2031 12.7812 31.3281 12.5547 31.3281C12.2969 31.3516 12.1172 31.2266 12.1172 31.0469C12.1172 30.8906 12.2969 30.7656 12.5234 30.7656C12.7578 30.7422 12.9609 30.8672 12.9609 31.0469ZM10.5312 30.6953C10.4766 30.8516 10.6328 31.0312 10.8672 31.0781C11.0703 31.1562 11.3047 31.0781 11.3516 30.9219C11.3984 30.7656 11.25 30.5859 11.0156 30.5156C10.8125 30.4609 10.5859 30.5391 10.5312 30.6953ZM13.9844 30.5625C13.7578 30.6172 13.6016 30.7656 13.625 30.9453C13.6484 31.1016 13.8516 31.2031 14.0859 31.1484C14.3125 31.0938 14.4688 30.9453 14.4453 30.7891C14.4219 30.6406 14.2109 30.5391 13.9844 30.5625ZM19.125 0.625C8.28906 0.625 0 8.85156 0 19.6875C0 28.3516 5.45312 35.7656 13.2422 38.375C14.2422 38.5547 14.5938 37.9375 14.5938 37.4297C14.5938 36.9453 14.5703 34.2734 14.5703 32.6328C14.5703 32.6328 9.10156 33.8047 7.95312 30.3047C7.95312 30.3047 7.0625 28.0312 5.78125 27.4453C5.78125 27.4453 3.99219 26.2188 5.90625 26.2422C5.90625 26.2422 7.85156 26.3984 8.92188 28.2578C10.6328 31.2734 13.5 30.4062 14.6172 29.8906C14.7969 28.6406 15.3047 27.7734 15.8672 27.2578C11.5 26.7734 7.09375 26.1406 7.09375 18.625C7.09375 16.4766 7.6875 15.3984 8.9375 14.0234C8.73438 13.5156 8.07031 11.4219 9.14062 8.71875C10.7734 8.21094 14.5312 10.8281 14.5312 10.8281C16.0938 10.3906 17.7734 10.1641 19.4375 10.1641C21.1016 10.1641 22.7812 10.3906 24.3438 10.8281C24.3438 10.8281 28.1016 8.20312 29.7344 8.71875C30.8047 11.4297 30.1406 13.5156 29.9375 14.0234C31.1875 15.4062 31.9531 16.4844 31.9531 18.625C31.9531 26.1641 27.3516 26.7656 22.9844 27.2578C23.7031 27.875 24.3125 29.0469 24.3125 30.8828C24.3125 33.5156 24.2891 36.7734 24.2891 37.4141C24.2891 37.9219 24.6484 38.5391 25.6406 38.3594C33.4531 35.7656 38.75 28.3516 38.75 19.6875C38.75 8.85156 29.9609 0.625 19.125 0.625ZM7.59375 27.5703C7.49219 27.6484 7.51562 27.8281 7.64844 27.9766C7.77344 28.1016 7.95312 28.1562 8.05469 28.0547C8.15625 27.9766 8.13281 27.7969 8 27.6484C7.875 27.5234 7.69531 27.4688 7.59375 27.5703ZM6.75 26.9375C6.69531 27.0391 6.77344 27.1641 6.92969 27.2422C7.05469 27.3203 7.21094 27.2969 7.26562 27.1875C7.32031 27.0859 7.24219 26.9609 7.08594 26.8828C6.92969 26.8359 6.80469 26.8594 6.75 26.9375ZM9.28125 29.7188C9.15625 29.8203 9.20312 30.0547 9.38281 30.2031C9.5625 30.3828 9.78906 30.4062 9.89062 30.2812C9.99219 30.1797 9.94531 29.9453 9.78906 29.7969C9.61719 29.6172 9.38281 29.5938 9.28125 29.7188ZM8.39062 28.5703C8.26562 28.6484 8.26562 28.8516 8.39062 29.0312C8.51562 29.2109 8.72656 29.2891 8.82812 29.2109C8.95312 29.1094 8.95312 28.9062 8.82812 28.7266C8.71875 28.5469 8.51562 28.4688 8.39062 28.5703Z" fill="black"/>
</g>
<defs>
<clipPath id="clip0_28_2899">
<rect width="38.75" height="40" fill="white"/>
</clipPath>
</defs>
</svg>
