<svg width="40" height="40" viewBox="0 0 40 40" fill="none" xmlns="http://www.w3.org/2000/svg">
<g clip-path="url(#clip0_28_2894)">
<path d="M39.8174 20.3742C39.8174 18.7354 39.6844 17.5395 39.3966 16.2994H20.6833V23.696H31.6676C31.4462 25.5342 30.2504 28.3024 27.5928 30.1625L27.5556 30.4102L33.4724 34.9938L33.8823 35.0347C37.647 31.5578 39.8174 26.4421 39.8174 20.3742Z" fill="#4285F4"/>
<path d="M20.6832 39.8627C26.0646 39.8627 30.5823 38.091 33.8821 35.0349L27.5927 30.1627C25.9096 31.3364 23.6507 32.1558 20.6832 32.1558C15.4126 32.1558 10.9391 28.679 9.34448 23.8733L9.11074 23.8931L2.95839 28.6545L2.87793 28.8782C6.15548 35.3891 12.8878 39.8627 20.6832 39.8627Z" fill="#34A853"/>
<path d="M9.34447 23.8733C8.92371 22.6331 8.6802 21.3043 8.6802 19.9313C8.6802 18.5582 8.92371 17.2295 9.32234 15.9893L9.31119 15.7252L3.08172 10.8873L2.87791 10.9843C1.52707 13.6861 0.751953 16.7202 0.751953 19.9313C0.751953 23.1424 1.52707 26.1763 2.87791 28.8782L9.34447 23.8733Z" fill="#FBBC05"/>
<path d="M20.6833 7.7067C24.4259 7.7067 26.9505 9.32334 28.39 10.6743L34.0151 5.18213C30.5604 1.97099 26.0647 0 20.6833 0C12.8879 0 6.15549 4.47342 2.87793 10.9842L9.32237 15.9893C10.9392 11.1836 15.4126 7.7067 20.6833 7.7067Z" fill="#EB4335"/>
</g>
<defs>
<clipPath id="clip0_28_2894">
<rect width="39.088" height="40" fill="white" transform="translate(0.75)"/>
</clipPath>
</defs>
</svg>
