<svg width="9" height="18" viewBox="0 0 9 18" fill="none" xmlns="http://www.w3.org/2000/svg">
<path d="M0.37664 9.99267L6.99848 17.6016C7.10724 17.7279 7.23664 17.8281 7.37921 17.8964C7.52177 17.9648 7.67469 18 7.82914 18C7.98358 18 8.1365 17.9648 8.27907 17.8964C8.42163 17.8281 8.55103 17.7279 8.65979 17.6016C8.87769 17.3493 9 17.008 9 16.6522C9 16.2964 8.87769 15.9551 8.65979 15.7028L2.86861 8.96916L8.65979 2.30289C8.87769 2.05057 9 1.70924 9 1.35345C9 0.997669 8.87769 0.65634 8.65979 0.404015C8.55144 0.276766 8.42222 0.175531 8.27964 0.10618C8.13705 0.036829 7.98393 0.000740051 7.82914 0C7.67435 0.000740051 7.52122 0.036829 7.37863 0.10618C7.23605 0.175531 7.10683 0.276766 6.99848 0.404015L0.37664 8.01299C0.257887 8.1391 0.163112 8.29216 0.0982885 8.46251C0.0334654 8.63287 0 8.81684 0 9.00283C0 9.18881 0.0334654 9.37278 0.0982885 9.54314C0.163112 9.7135 0.257887 9.86656 0.37664 9.99267Z" fill="black"/>
</svg>
