<svg width="360" height="94" viewBox="0 0 360 94" fill="none" xmlns="http://www.w3.org/2000/svg">
<path d="M21.7356 4.6205L42.1404 49.0203H37.4088L30.5362 34.3984H11.6928L4.87941 48.9963H0L20.665 4.5965L21.7356 4.6205ZM21.1855 14.0525L13.6919 30.1144H28.6436L21.1855 14.0525Z" fill="white"/>
<path d="M49.1908 14.3105H53.5971V30.5405C53.5971 34.5045 53.808 37.2325 54.2299 38.7244C54.8072 40.7956 56.087 42.5933 57.8436 43.8004C59.7283 45.0486 61.9463 45.6771 64.1957 45.6004C66.4166 45.6706 68.6045 45.0418 70.4591 43.8004C72.1251 42.6582 73.3726 40.9898 74.0078 39.0544C74.4454 37.7104 74.6662 34.8665 74.6702 30.5225V14.3225H79.1711V31.3745C79.1711 36.1745 78.621 39.7844 77.521 42.2044C76.469 44.5727 74.7323 46.5606 72.541 47.9044C70.329 49.2764 67.5531 49.9644 64.2135 49.9684C60.8738 49.9724 58.0861 49.2844 55.8505 47.9044C53.6445 46.5552 51.9032 44.5477 50.8646 42.1564C49.7566 39.6964 49.2046 35.9965 49.2085 31.0565L49.1908 14.3105Z" fill="white"/>
<path d="M92.8093 1.40466H97.2156V14.3106H104.206V18.1806H97.2156V49.0745H92.8093V18.1806H86.7943V14.3106H92.8093V1.40466Z" fill="white"/>
<path d="M153.024 14.3107H157.43V20.3107C158.674 18.3902 160.283 16.7401 162.162 15.4567C164.272 14.1277 166.705 13.4193 169.188 13.4107C170.816 13.4033 172.428 13.7405 173.92 14.4007C175.316 14.9959 176.564 15.8975 177.575 17.0407C178.683 18.4374 179.518 20.0361 180.035 21.7507C181.316 19.2364 183.209 17.0964 185.536 15.5347C187.649 14.1448 190.115 13.407 192.633 13.4107C194.854 13.3599 197.038 13.987 198.903 15.2107C200.73 16.443 202.14 18.2149 202.942 20.2867C203.817 22.4667 204.257 25.7266 204.261 30.0666V49.0745H199.754V30.0966C199.754 26.3726 199.494 23.8106 198.974 22.4107C198.453 21.0264 197.513 19.8456 196.288 19.0387C194.935 18.1663 193.355 17.7235 191.752 17.7667C189.649 17.7552 187.597 18.4259 185.897 19.6807C184.132 20.9548 182.783 22.735 182.023 24.7926C181.207 26.9206 180.798 30.4766 180.798 35.4606V49.0745H176.386V31.2786C176.386 27.0826 176.13 24.2326 175.617 22.7287C175.124 21.2668 174.181 20.0047 172.926 19.1287C171.581 18.2043 169.985 17.7301 168.36 17.7727C166.311 17.7738 164.314 18.4241 162.647 19.6327C160.873 20.8776 159.503 22.6299 158.714 24.6666C157.862 26.7746 157.436 30.0006 157.436 34.3446V49.0745H153.03L153.024 14.3107Z" fill="white"/>
<path d="M259.644 1.40466H264.05V14.3106H271.041V18.1806H264.032V49.0745H259.644V18.1806H253.611V14.3106H259.644V1.40466Z" fill="white"/>
<path d="M279.162 0.000424605C279.64 -0.00709951 280.115 0.0854457 280.557 0.27229C280.998 0.459134 281.397 0.736271 281.729 1.08642C282.073 1.42707 282.345 1.83515 282.529 2.28588C282.713 2.73661 282.805 3.22059 282.799 3.70841C282.803 4.19065 282.711 4.6687 282.527 5.11334C282.342 5.55798 282.071 5.95986 281.729 6.2944C281.395 6.63835 280.997 6.91153 280.559 7.09799C280.12 7.28446 279.649 7.38049 279.173 7.38049C278.698 7.38049 278.227 7.28446 277.788 7.09799C277.35 6.91153 276.952 6.63835 276.618 6.2944C276.277 5.95956 276.006 5.55749 275.823 5.11283C275.64 4.66816 275.548 4.19026 275.554 3.70841C275.547 3.22102 275.638 2.7373 275.821 2.2866C276.004 1.83589 276.275 1.42758 276.618 1.08642C276.946 0.737521 277.341 0.46097 277.778 0.274096C278.216 0.0872214 278.687 -0.00594826 279.162 0.000424605ZM276.973 14.3104H281.38V49.0742H276.973V14.3104Z" fill="white"/>
<path d="M287.306 14.3105H291.996L303.5 39.6484L314.861 14.3105H319.593L303.902 49.0744H303.086L287.306 14.3105Z" fill="white"/>
<path d="M355.139 37.5367L358.859 39.5227C357.804 41.7186 356.375 43.7073 354.636 45.3967C353.069 46.87 351.238 48.0248 349.242 48.7987C347.075 49.6201 344.777 50.0269 342.464 49.9987C336.877 49.9987 332.506 48.1407 329.352 44.4247C326.294 40.9619 324.609 36.4735 324.62 31.8247C324.574 27.5439 325.989 23.3786 328.624 20.0348C332.007 15.6348 336.542 13.4348 342.227 13.4348C348.063 13.4348 352.727 15.6828 356.221 20.1788C358.701 23.3508 359.961 27.3128 360 32.0647H329.162C329.245 36.0927 330.519 39.4047 332.983 42.0007C334.149 43.2581 335.562 44.2529 337.131 44.9207C338.7 45.5884 340.39 45.9141 342.091 45.8767C343.829 45.8685 345.552 45.5455 347.178 44.9227C348.716 44.3725 350.143 43.543 351.389 42.4747C352.875 41.0285 354.139 39.3639 355.139 37.5367ZM355.139 28.1768C354.695 26.1067 353.82 24.1569 352.572 22.4588C351.369 20.9716 349.839 19.7902 348.106 19.0088C346.281 18.1426 344.29 17.696 342.275 17.7008C339.076 17.6429 335.976 18.8229 333.604 21.0008C331.834 22.6008 330.499 25.0008 329.6 28.2008L355.139 28.1768Z" fill="white"/>
<path d="M231.586 49.0741C241.392 49.0741 249.341 40.8648 249.341 30.7382C249.341 20.6115 241.392 12.4022 231.586 12.4022C221.78 12.4022 213.831 20.6115 213.831 30.7382C213.831 40.8648 221.78 49.0741 231.586 49.0741Z" fill="white"/>
<path fill-rule="evenodd" clip-rule="evenodd" d="M144.62 30.7383C144.62 40.8649 136.67 49.0742 126.865 49.0742C117.059 49.0742 109.109 40.8649 109.109 30.7383C109.109 20.6116 117.059 12.4023 126.865 12.4023C136.67 12.4023 144.62 20.6116 144.62 30.7383ZM127.978 17.633L119.086 30.4809C118.627 31.1442 119.102 32.05 119.908 32.05H123.2C123.752 32.05 124.2 32.4977 124.2 33.05V42.7979C124.2 43.7783 125.464 44.1732 126.022 43.367L134.914 30.5191C135.373 29.8558 134.898 28.95 134.092 28.95H130.8C130.248 28.95 129.8 28.5023 129.8 27.95V18.2021C129.8 17.2217 128.536 16.8268 127.978 17.633Z" fill="white"/>
<path d="M8.928 75.16C10.16 75.16 11.264 75.432 12.24 75.976C13.216 76.52 13.976 77.28 14.52 78.256C15.08 79.232 15.36 80.36 15.36 81.64C15.36 82.92 15.08 84.056 14.52 85.048C13.976 86.024 13.216 86.784 12.24 87.328C11.264 87.872 10.16 88.144 8.928 88.144C7.984 88.144 7.12 87.96 6.336 87.592C5.552 87.224 4.904 86.688 4.392 85.984V88H2.184V70.192H4.488V77.2C5 76.528 5.64 76.024 6.408 75.688C7.176 75.336 8.016 75.16 8.928 75.16ZM8.736 86.128C9.552 86.128 10.28 85.944 10.92 85.576C11.576 85.192 12.088 84.664 12.456 83.992C12.84 83.304 13.032 82.52 13.032 81.64C13.032 80.76 12.84 79.984 12.456 79.312C12.088 78.624 11.576 78.096 10.92 77.728C10.28 77.36 9.552 77.176 8.736 77.176C7.936 77.176 7.208 77.36 6.552 77.728C5.896 78.096 5.384 78.624 5.016 79.312C4.648 79.984 4.464 80.76 4.464 81.64C4.464 82.52 4.648 83.304 5.016 83.992C5.384 84.664 5.896 85.192 6.552 85.576C7.208 85.944 7.936 86.128 8.736 86.128ZM29.4478 75.28L23.2798 89.272C22.7358 90.568 22.0958 91.48 21.3598 92.008C20.6398 92.536 19.7678 92.8 18.7438 92.8C18.1198 92.8 17.5118 92.696 16.9198 92.488C16.3438 92.296 15.8638 92.008 15.4798 91.624L16.4638 89.896C17.1198 90.52 17.8798 90.832 18.7438 90.832C19.3038 90.832 19.7678 90.68 20.1358 90.376C20.5198 90.088 20.8638 89.584 21.1678 88.864L21.5758 87.976L15.9598 75.28H18.3598L22.7998 85.456L27.1918 75.28H29.4478ZM52.8274 71.2V88H50.8594L40.7794 75.472V88H38.3794V71.2H40.3474L50.4274 83.728V71.2H52.8274ZM68.5599 83.8H59.6319L57.7839 88H55.3119L62.9199 71.2H65.2959L72.9279 88H70.4079L68.5599 83.8ZM67.7199 81.88L64.0959 73.648L60.4719 81.88H67.7199ZM81.9861 71.2C84.1621 71.2 85.8741 71.72 87.1221 72.76C88.3701 73.8 88.9941 75.232 88.9941 77.056C88.9941 78.88 88.3701 80.312 87.1221 81.352C85.8741 82.392 84.1621 82.912 81.9861 82.912H77.8341V88H75.4341V71.2H81.9861ZM81.9141 80.824C83.4341 80.824 84.5941 80.504 85.3941 79.864C86.1941 79.208 86.5941 78.272 86.5941 77.056C86.5941 75.84 86.1941 74.912 85.3941 74.272C84.5941 73.616 83.4341 73.288 81.9141 73.288H77.8341V80.824H81.9141ZM102.38 83.8H93.4523L91.6043 88H89.1322L96.7403 71.2H99.1163L106.748 88H104.228L102.38 83.8ZM101.54 81.88L97.9163 73.648L94.2923 81.88H101.54Z" fill="white"/>
</svg>
