<svg width="54" height="54" viewBox="0 0 54 54" fill="none" xmlns="http://www.w3.org/2000/svg">
<g filter="url(#filter0_dd_19_3222)">
<path d="M27 19.5C25.5166 19.5 24.0666 19.9399 22.8332 20.764C21.5999 21.5881 20.6386 22.7594 20.0709 24.1299C19.5032 25.5003 19.3547 27.0083 19.6441 28.4632C19.9335 29.918 20.6478 31.2544 21.6967 32.3033C22.7456 33.3522 24.082 34.0665 25.5368 34.3559C26.9917 34.6453 28.4997 34.4968 29.8701 33.9291C31.2406 33.3614 32.4119 32.4001 33.236 31.1668C34.0601 29.9334 34.5 28.4834 34.5 27C34.5 25.0109 33.7098 23.1032 32.3033 21.6967C30.8968 20.2902 28.9891 19.5 27 19.5ZM27 31.5C26.11 31.5 25.24 31.2361 24.4999 30.7416C23.7599 30.2471 23.1831 29.5443 22.8425 28.7221C22.5019 27.8998 22.4128 26.995 22.5865 26.1221C22.7601 25.2492 23.1887 24.4474 23.818 23.818C24.4474 23.1887 25.2492 22.7601 26.1221 22.5865C26.995 22.4128 27.8998 22.5019 28.7221 22.8425C29.5443 23.1831 30.2471 23.7599 30.7416 24.4999C31.2361 25.24 31.5 26.11 31.5 27C31.5 28.1935 31.0259 29.3381 30.182 30.182C29.3381 31.0259 28.1935 31.5 27 31.5ZM34.5 18C34.2033 18 33.9133 18.088 33.6666 18.2528C33.42 18.4176 33.2277 18.6519 33.1142 18.926C33.0006 19.2001 32.9709 19.5017 33.0288 19.7926C33.0867 20.0836 33.2296 20.3509 33.4393 20.5607C33.6491 20.7704 33.9164 20.9133 34.2074 20.9712C34.4983 21.0291 34.7999 20.9994 35.074 20.8858C35.3481 20.7723 35.5824 20.58 35.7472 20.3334C35.912 20.0867 36 19.7967 36 19.5C36 19.1022 35.842 18.7206 35.5607 18.4393C35.2794 18.158 34.8978 18 34.5 18ZM41.91 21.36C41.8851 20.0781 41.6416 18.8099 41.19 17.61C40.7712 16.5181 40.1274 15.5265 39.3005 14.6995C38.4735 13.8726 37.4819 13.2288 36.39 12.81C35.1901 12.3583 33.9219 12.1149 32.64 12.09C31.185 12 30.705 12 27 12C23.295 12 22.815 12 21.36 12.09C20.0781 12.1149 18.8099 12.3583 17.61 12.81C16.5181 13.2288 15.5265 13.8726 14.6995 14.6995C13.8726 15.5265 13.2288 16.5181 12.81 17.61C12.3583 18.8099 12.1149 20.0781 12.09 21.36C12 22.83 12 23.31 12 27C12 30.69 12 31.17 12.09 32.64C12.1149 33.9219 12.3583 35.1901 12.81 36.39C13.2288 37.4819 13.8726 38.4735 14.6995 39.3005C15.5265 40.1274 16.5181 40.7712 17.61 41.19C18.8099 41.6416 20.0781 41.8851 21.36 41.91C22.86 41.91 23.295 42 27 42C30.705 42 31.185 42 32.64 41.91C33.9219 41.8851 35.1901 41.6416 36.39 41.19C37.4819 40.7712 38.4735 40.1274 39.3005 39.3005C40.1274 38.4735 40.7712 37.4819 41.19 36.39C41.6416 35.1901 41.8851 33.9219 41.91 32.64C41.91 31.14 42 30.69 42 27C42 23.31 42 22.83 41.91 21.36ZM38.91 32.505C38.8837 33.4569 38.7065 34.3986 38.385 35.295C38.1192 36.0035 37.699 36.644 37.155 37.17C36.6321 37.7143 35.9904 38.1301 35.28 38.385C34.3815 38.7197 33.4335 38.9022 32.475 38.925C31.065 38.925 30.63 39 26.985 39C23.34 39 22.92 39 21.51 39C20.553 38.9753 19.6061 38.7981 18.705 38.475C17.9965 38.2092 17.356 37.789 16.83 37.245C16.2857 36.7221 15.8699 36.0804 15.615 35.37C15.2817 34.4763 15.0992 33.5335 15.075 32.58C15.075 31.08 15.075 30.705 15.075 27.075C15.075 23.445 15.075 23.01 15.075 21.57C15.1009 20.6118 15.2833 19.6643 15.615 18.765C15.8738 18.0609 16.2893 17.4249 16.83 16.905C17.3529 16.3607 17.9946 15.9449 18.705 15.69C19.6035 15.3553 20.5515 15.1728 21.51 15.15C22.92 15 23.355 15 27 15C30.645 15 31.08 15 32.49 15C33.4532 15.0245 34.4059 15.2069 35.31 15.54C36.0141 15.7988 36.6501 16.2143 37.17 16.755C37.7143 17.2779 38.1301 17.9196 38.385 18.63C38.7522 19.5428 38.9602 20.5119 39 21.495C39 22.995 39.075 23.37 39.075 27C39.075 30.63 39 31.065 39 32.505H38.91Z" fill="#1D71B8"/>
</g>
<defs>
<filter id="filter0_dd_19_3222" x="0.126801" y="0.126801" width="53.7464" height="53.7464" filterUnits="userSpaceOnUse" color-interpolation-filters="sRGB">
<feFlood flood-opacity="0" result="BackgroundImageFix"/>
<feColorMatrix in="SourceAlpha" type="matrix" values="0 0 0 0 0 0 0 0 0 0 0 0 0 0 0 0 0 0 127 0" result="hardAlpha"/>
<feOffset/>
<feGaussianBlur stdDeviation="4.85722"/>
<feComposite in2="hardAlpha" operator="out"/>
<feColorMatrix type="matrix" values="0 0 0 0 1 0 0 0 0 1 0 0 0 0 1 0 0 0 0.35 0"/>
<feBlend mode="lighten" in2="BackgroundImageFix" result="effect1_dropShadow_19_3222"/>
<feColorMatrix in="SourceAlpha" type="matrix" values="0 0 0 0 0 0 0 0 0 0 0 0 0 0 0 0 0 0 127 0" result="hardAlpha"/>
<feOffset/>
<feGaussianBlur stdDeviation="5.9366"/>
<feComposite in2="hardAlpha" operator="out"/>
<feColorMatrix type="matrix" values="0 0 0 0 1 0 0 0 0 1 0 0 0 0 1 0 0 0 0.35 0"/>
<feBlend mode="lighten" in2="effect1_dropShadow_19_3222" result="effect2_dropShadow_19_3222"/>
<feBlend mode="normal" in="SourceGraphic" in2="effect2_dropShadow_19_3222" result="shape"/>
</filter>
</defs>
</svg>
