<svg width="42" height="54" viewBox="0 0 42 54" fill="none" xmlns="http://www.w3.org/2000/svg">
<g filter="url(#filter0_dd_19_3221)">
<path d="M29.7799 23.5091C29.662 23.324 29.503 23.1725 29.317 23.0679C29.1309 22.9633 28.9235 22.9088 28.7129 22.9091H24.8561V20.1818H27.6844C28.0254 20.1818 28.3524 20.0381 28.5935 19.7824C28.8346 19.5267 28.97 19.1798 28.97 18.8182V13.3636C28.97 13.002 28.8346 12.6551 28.5935 12.3994C28.3524 12.1437 28.0254 12 27.6844 12H23.5705C21.5929 12 19.6963 12.8333 18.2979 14.3165C16.8995 15.7998 16.1139 17.8115 16.1139 19.9091V22.9091H13.2856C12.9446 22.9091 12.6176 23.0528 12.3765 23.3085C12.1354 23.5642 12 23.9111 12 24.2727V29.7273C12 30.0889 12.1354 30.4358 12.3765 30.6915C12.6176 30.9472 12.9446 31.0909 13.2856 31.0909H16.1139V40.6364C16.1139 40.998 16.2494 41.3449 16.4905 41.6006C16.7316 41.8563 17.0586 42 17.3995 42H23.5705C23.9114 42 24.2384 41.8563 24.4795 41.6006C24.7206 41.3449 24.8561 40.998 24.8561 40.6364V31.0909H26.6559C26.9134 31.0912 27.165 31.0094 27.3782 30.8563C27.5914 30.7031 27.7563 30.4855 27.8515 30.2318L29.9085 24.7773C29.9862 24.5708 30.015 24.3473 29.9926 24.1263C29.9702 23.9052 29.8972 23.6933 29.7799 23.5091ZM25.7817 28.3636H23.5705C23.2295 28.3636 22.9025 28.5073 22.6614 28.763C22.4203 29.0188 22.2849 29.3656 22.2849 29.7273V39.2727H18.6852V29.7273C18.6852 29.3656 18.5497 29.0188 18.3086 28.763C18.0675 28.5073 17.7405 28.3636 17.3995 28.3636H14.5712V25.6364H17.3995C17.7405 25.6364 18.0675 25.4927 18.3086 25.237C18.5497 24.9812 18.6852 24.6344 18.6852 24.2727V19.9091C18.6885 18.5359 19.2043 17.22 20.1198 16.249C21.0352 15.278 22.2758 14.7309 23.5705 14.7273H26.3988V17.4545H25.3703C24.935 17.3873 24.4914 17.4155 24.0668 17.5375C23.6422 17.6595 23.2457 17.8726 22.9019 18.1636C22.6933 18.3953 22.5311 18.6694 22.425 18.9694C22.319 19.2694 22.2713 19.589 22.2849 19.9091V24.2727C22.2849 24.6344 22.4203 24.9812 22.6614 25.237C22.9025 25.4927 23.2295 25.6364 23.5705 25.6364H26.8102L25.7817 28.3636Z" fill="#1D71B8"/>
</g>
<defs>
<filter id="filter0_dd_19_3221" x="0.126801" y="0.126801" width="41.7464" height="53.7464" filterUnits="userSpaceOnUse" color-interpolation-filters="sRGB">
<feFlood flood-opacity="0" result="BackgroundImageFix"/>
<feColorMatrix in="SourceAlpha" type="matrix" values="0 0 0 0 0 0 0 0 0 0 0 0 0 0 0 0 0 0 127 0" result="hardAlpha"/>
<feOffset/>
<feGaussianBlur stdDeviation="4.85722"/>
<feComposite in2="hardAlpha" operator="out"/>
<feColorMatrix type="matrix" values="0 0 0 0 1 0 0 0 0 1 0 0 0 0 1 0 0 0 0.35 0"/>
<feBlend mode="lighten" in2="BackgroundImageFix" result="effect1_dropShadow_19_3221"/>
<feColorMatrix in="SourceAlpha" type="matrix" values="0 0 0 0 0 0 0 0 0 0 0 0 0 0 0 0 0 0 127 0" result="hardAlpha"/>
<feOffset/>
<feGaussianBlur stdDeviation="5.9366"/>
<feComposite in2="hardAlpha" operator="out"/>
<feColorMatrix type="matrix" values="0 0 0 0 1 0 0 0 0 1 0 0 0 0 1 0 0 0 0.35 0"/>
<feBlend mode="lighten" in2="effect1_dropShadow_19_3221" result="effect2_dropShadow_19_3221"/>
<feBlend mode="normal" in="SourceGraphic" in2="effect2_dropShadow_19_3221" result="shape"/>
</filter>
</defs>
</svg>
