<svg width="59" height="54" viewBox="0 0 59 54" fill="none" xmlns="http://www.w3.org/2000/svg">
<g filter="url(#filter0_dd_19_3220)">
<path d="M45.8311 12.7072C45.3781 12.3536 44.8314 12.1218 44.2492 12.0366C43.667 11.9513 43.0711 12.0158 42.5249 12.2232L14.0136 23.0255C13.4039 23.2609 12.8848 23.6648 12.5254 24.1835C12.166 24.7022 11.9832 25.3113 12.0012 25.9298C12.0193 26.5483 12.2373 27.147 12.6264 27.6465C13.0155 28.1459 13.5573 28.5226 14.1799 28.7263L19.9471 30.6086L23.1616 40.5843C23.2053 40.7176 23.2686 40.8444 23.3499 40.9611C23.3622 40.979 23.3796 40.9924 23.3927 41.0098C23.4866 41.1327 23.6001 41.2413 23.7291 41.3319C23.7658 41.3582 23.801 41.3828 23.8402 41.4061C23.9912 41.5001 24.1585 41.5689 24.3345 41.6093L24.3534 41.6108L24.3641 41.6151C24.4699 41.6353 24.5776 41.6455 24.6857 41.6457C24.6961 41.6457 24.7053 41.641 24.7156 41.6409C24.8786 41.6382 25.0402 41.6118 25.1946 41.5628C25.2305 41.5513 25.2613 41.5321 25.2962 41.5182C25.4113 41.4734 25.5204 41.416 25.6212 41.3472C25.7019 41.2833 25.7826 41.2196 25.8633 41.1558L30.1624 36.7016L36.5743 41.3628C37.1388 41.7753 37.8336 41.9994 38.549 42C39.2986 41.9991 40.0252 41.7564 40.6067 41.3125C41.1883 40.8687 41.5896 40.2507 41.7434 39.5622L46.9342 15.6495C47.0518 15.1113 47.0113 14.5532 46.817 14.0349C46.6227 13.5167 46.2819 13.0577 45.8311 12.7072ZM25.3165 31.0839C25.0959 31.2901 24.9451 31.5529 24.883 31.8392L24.3906 34.0847L23.1432 30.2132L29.6108 27.0526L25.3165 31.0839ZM38.5242 39.0023L30.947 33.494C30.63 33.2641 30.2323 33.1547 29.8332 33.1877C29.4341 33.2207 29.0629 33.3935 28.7936 33.6718L27.4168 35.098L27.9033 32.8787L39.1721 22.3038C39.441 22.0517 39.6049 21.7176 39.634 21.3619C39.6631 21.0062 39.5555 20.6525 39.3307 20.3648C39.1059 20.0772 38.7787 19.8746 38.4084 19.7938C38.0382 19.713 37.6493 19.7593 37.3123 19.9243L21.1399 27.8262L15.2146 25.7914L43.8175 15.0531L38.5242 39.0023Z" fill="#1D71B8"/>
</g>
<defs>
<filter id="filter0_dd_19_3220" x="0.126801" y="0.126801" width="58.7464" height="53.7464" filterUnits="userSpaceOnUse" color-interpolation-filters="sRGB">
<feFlood flood-opacity="0" result="BackgroundImageFix"/>
<feColorMatrix in="SourceAlpha" type="matrix" values="0 0 0 0 0 0 0 0 0 0 0 0 0 0 0 0 0 0 127 0" result="hardAlpha"/>
<feOffset/>
<feGaussianBlur stdDeviation="4.85722"/>
<feComposite in2="hardAlpha" operator="out"/>
<feColorMatrix type="matrix" values="0 0 0 0 1 0 0 0 0 1 0 0 0 0 1 0 0 0 0.35 0"/>
<feBlend mode="lighten" in2="BackgroundImageFix" result="effect1_dropShadow_19_3220"/>
<feColorMatrix in="SourceAlpha" type="matrix" values="0 0 0 0 0 0 0 0 0 0 0 0 0 0 0 0 0 0 127 0" result="hardAlpha"/>
<feOffset/>
<feGaussianBlur stdDeviation="5.9366"/>
<feComposite in2="hardAlpha" operator="out"/>
<feColorMatrix type="matrix" values="0 0 0 0 1 0 0 0 0 1 0 0 0 0 1 0 0 0 0.35 0"/>
<feBlend mode="lighten" in2="effect1_dropShadow_19_3220" result="effect2_dropShadow_19_3220"/>
<feBlend mode="normal" in="SourceGraphic" in2="effect2_dropShadow_19_3220" result="shape"/>
</filter>
</defs>
</svg>
